<svg width="48.000000" height="48.000000" viewBox="0 0 48 48" fill="none" xmlns="http://www.w3.org/2000/svg" xmlns:xlink="http://www.w3.org/1999/xlink">
	<desc>
			Created with Pixso.
	</desc>
	<defs>
		<clipPath id="clip101_27573">
			<rect id="Arrow left" rx="-0.500000" width="23.000000" height="23.000000" transform="translate(12.500000 12.500000)" fill="white" fill-opacity="0"/>
		</clipPath>
	</defs>
	<rect id="Button" rx="23.500000" width="47.000000" height="47.000000" transform="translate(0.500000 0.500000)" fill="#FFFFFF" fill-opacity="1.000000"/>
	<rect id="Arrow left" rx="-0.500000" width="23.000000" height="23.000000" transform="translate(12.500000 12.500000)" fill="#FFFFFF" fill-opacity="0"/>
	<g clip-path="url(#clip101_27573)">
		<path id="Vector" d="M19.71 24.53C19.57 24.39 19.5 24.2 19.5 24C19.5 23.8 19.57 23.61 19.71 23.47L27.21 15.97C27.28 15.89 27.37 15.84 27.46 15.79C27.55 15.75 27.65 15.73 27.75 15.73C27.85 15.73 27.95 15.75 28.05 15.78C28.14 15.82 28.22 15.88 28.29 15.95C28.37 16.02 28.42 16.1 28.46 16.2C28.5 16.29 28.51 16.39 28.51 16.5C28.51 16.6 28.49 16.69 28.45 16.78C28.41 16.88 28.35 16.96 28.28 17.03L21.3 24L28.28 30.97C28.35 31.03 28.41 31.12 28.45 31.21C28.49 31.3 28.51 31.4 28.51 31.5C28.51 31.6 28.5 31.71 28.46 31.8C28.42 31.89 28.37 31.98 28.29 32.05C28.22 32.12 28.14 32.17 28.05 32.21C27.95 32.25 27.85 32.27 27.75 32.27C27.65 32.27 27.55 32.25 27.46 32.2C27.37 32.16 27.28 32.1 27.21 32.03L19.71 24.53Z" fill="#191A26" fill-opacity="1.000000" fill-rule="evenodd"/>
	</g>
	<rect id="Button" rx="23.500000" width="47.000000" height="47.000000" transform="translate(0.500000 0.500000)" stroke="#DEE3E8" stroke-opacity="1.000000" stroke-width="1.000000"/>
</svg>
