<svg width="60.000000" height="60.000000" viewBox="0 0 60 60" fill="none" xmlns="http://www.w3.org/2000/svg" xmlns:xlink="http://www.w3.org/1999/xlink">
	<desc>
			Created with Pixso.
	</desc>
	<defs>
		<clipPath id="clip82_27522">
			<rect id="link" rx="-0.500000" width="23.000000" height="23.000000" transform="translate(18.500000 18.500000)" fill="white" fill-opacity="0"/>
		</clipPath>
	</defs>
	<rect id="Button" rx="29.500000" width="59.000000" height="59.000000" transform="translate(0.500000 0.500000)" fill="#FFFFFF" fill-opacity="1.000000"/>
	<rect id="link" rx="-0.500000" width="23.000000" height="23.000000" transform="translate(18.500000 18.500000)" fill="#FFFFFF" fill-opacity="0"/>
	<g clip-path="url(#clip82_27522)">
		<path id="Vector" d="M37.9 22.1C37.55 21.75 37.14 21.47 36.68 21.28C36.23 21.09 35.74 21 35.25 21C34.75 21 34.27 21.09 33.81 21.28C33.36 21.47 32.94 21.75 32.59 22.1L28.09 26.6C27.67 27.02 27.35 27.54 27.17 28.11C26.99 28.68 26.95 29.29 27.05 29.88C27.15 30.47 27.39 31.03 27.75 31.51C28.12 31.99 28.59 32.37 29.13 32.63C29.3 32.72 29.43 32.87 29.5 33.06C29.56 33.25 29.55 33.45 29.46 33.62C29.38 33.8 29.23 33.93 29.05 34C28.86 34.07 28.66 34.07 28.48 33.99C27.73 33.62 27.07 33.08 26.56 32.42C26.05 31.75 25.71 30.96 25.57 30.14C25.43 29.31 25.49 28.46 25.74 27.66C26 26.85 26.44 26.13 27.03 25.53L31.53 21.03C32.02 20.53 32.6 20.14 33.24 19.87C33.88 19.6 34.57 19.46 35.26 19.45C35.96 19.44 36.65 19.58 37.29 19.84C37.93 20.1 38.51 20.5 39.01 20.99C39.5 21.48 39.89 22.07 40.15 22.71C40.41 23.35 40.55 24.03 40.54 24.73C40.54 25.42 40.4 26.11 40.12 26.75C39.85 27.39 39.46 27.97 38.96 28.46L37.2 30.21C37.13 30.29 37.05 30.35 36.96 30.39C36.87 30.43 36.77 30.45 36.66 30.46C36.57 30.46 36.47 30.44 36.37 30.4C36.28 30.36 36.19 30.31 36.12 30.24C36.05 30.16 36 30.08 35.96 29.99C35.92 29.89 35.9 29.79 35.9 29.69C35.91 29.59 35.93 29.49 35.97 29.4C36.01 29.31 36.07 29.22 36.14 29.15L37.9 27.4C38.25 27.05 38.52 26.64 38.71 26.18C38.9 25.73 39 25.24 39 24.75C39 24.25 38.9 23.77 38.71 23.31C38.52 22.85 38.25 22.44 37.9 22.1ZM30.51 26.36C30.59 26.18 30.75 26.04 30.94 25.98C31.12 25.91 31.33 25.92 31.51 26.01C32.27 26.37 32.93 26.91 33.43 27.58C33.94 28.25 34.28 29.03 34.42 29.85C34.56 30.68 34.5 31.53 34.25 32.34C34 33.14 33.55 33.86 32.96 34.46L28.46 38.96C27.97 39.46 27.39 39.85 26.75 40.13C26.11 40.39 25.43 40.54 24.73 40.54C24.04 40.55 23.35 40.42 22.7 40.15C22.06 39.89 21.48 39.5 20.99 39C20.5 38.52 20.1 37.93 19.84 37.28C19.58 36.64 19.44 35.96 19.45 35.26C19.45 34.57 19.59 33.88 19.87 33.24C20.14 32.6 20.54 32.02 21.03 31.53L22.79 29.78C22.86 29.71 22.94 29.64 23.03 29.6C23.13 29.57 23.23 29.54 23.33 29.54C23.43 29.53 23.53 29.56 23.62 29.6C23.71 29.63 23.8 29.69 23.87 29.76C23.94 29.83 24 29.92 24.04 30.01C24.07 30.1 24.09 30.2 24.09 30.3C24.09 30.4 24.07 30.5 24.02 30.6C23.98 30.68 23.92 30.77 23.85 30.84L22.09 32.6C21.75 32.94 21.47 33.35 21.28 33.81C21.09 34.27 21 34.75 21 35.25C21 35.74 21.09 36.23 21.28 36.68C21.47 37.14 21.75 37.55 22.09 37.9C22.44 38.25 22.86 38.53 23.31 38.71C23.77 38.9 24.25 39 24.75 39C25.24 39 25.73 38.9 26.18 38.71C26.64 38.53 27.05 38.25 27.4 37.9L31.9 33.4C32.32 32.97 32.64 32.46 32.82 31.89C33 31.31 33.05 30.71 32.94 30.11C32.84 29.52 32.6 28.96 32.24 28.48C31.88 28 31.41 27.62 30.86 27.36C30.77 27.32 30.69 27.26 30.63 27.18C30.56 27.11 30.51 27.03 30.48 26.93C30.45 26.84 30.43 26.75 30.44 26.64C30.44 26.55 30.47 26.45 30.51 26.36Z" fill="#191A26" fill-opacity="1.000000" fill-rule="evenodd"/>
	</g>
	<rect id="Button" rx="29.500000" width="59.000000" height="59.000000" transform="translate(0.500000 0.500000)" stroke="#DEE3E8" stroke-opacity="1.000000" stroke-width="1.000000"/>
</svg>
