<svg width="20.000000" height="11.562500" viewBox="0 0 20 11.5625" fill="none" xmlns="http://www.w3.org/2000/svg" xmlns:xlink="http://www.w3.org/1999/xlink">
	<desc>
			Created with Pixso.
	</desc>
	<defs/>
	<path id="Vector" d="M19.12 9.01C18.69 8.49 18.19 8.02 17.72 7.57C17.55 7.41 17.37 7.24 17.2 7.07C16.71 6.6 16.7 6.42 17.08 5.88C17.35 5.5 17.63 5.14 17.91 4.77C18.15 4.44 18.41 4.1 18.66 3.77L18.71 3.7C19.17 3.04 19.66 2.37 19.92 1.57C19.99 1.35 20.06 1.03 19.9 0.77C19.74 0.51 19.42 0.42 19.2 0.39C19.09 0.37 18.98 0.37 18.88 0.37L15.81 0.36L15.78 0.36C15.32 0.36 15 0.59 14.82 1.03C14.65 1.46 14.46 1.92 14.25 2.36C13.82 3.23 13.28 4.23 12.49 5.07L12.46 5.1C12.36 5.21 12.26 5.32 12.18 5.32C12.17 5.32 12.16 5.32 12.14 5.31C11.98 5.25 11.87 4.85 11.87 4.67C11.87 4.67 11.87 4.66 11.87 4.66L11.87 1.1C11.87 1.09 11.87 1.08 11.87 1.07C11.79 0.49 11.62 0.13 10.96 0C10.94 0 10.93 0 10.91 0L7.71 0C7.19 0 6.9 0.21 6.63 0.53C6.56 0.61 6.41 0.78 6.48 1C6.56 1.21 6.81 1.26 6.89 1.28C7.29 1.35 7.51 1.6 7.58 2.03C7.69 2.77 7.7 3.57 7.62 4.53C7.6 4.79 7.55 5 7.48 5.17C7.46 5.21 7.4 5.35 7.33 5.35C7.32 5.35 7.26 5.34 7.15 5.27C6.91 5.1 6.72 4.85 6.51 4.56C5.79 3.53 5.19 2.42 4.66 1.13C4.47 0.65 4.1 0.39 3.64 0.38C3.13 0.37 2.67 0.36 2.23 0.36C1.75 0.36 1.3 0.37 0.86 0.38C0.49 0.39 0.23 0.5 0.09 0.71C-0.04 0.92 -0.04 1.21 0.12 1.55C1.35 4.29 2.46 6.28 3.74 8C4.63 9.21 5.52 10.05 6.55 10.64C7.64 11.25 8.85 11.56 10.26 11.56C10.42 11.56 10.59 11.55 10.75 11.54C11.58 11.5 11.88 11.21 11.92 10.41C11.94 10 11.98 9.57 12.18 9.21C12.31 8.97 12.43 8.97 12.47 8.97C12.54 8.97 12.64 9.01 12.73 9.07C12.91 9.19 13.07 9.35 13.19 9.48C13.31 9.61 13.43 9.75 13.55 9.88C13.8 10.16 14.06 10.45 14.33 10.73C14.93 11.34 15.59 11.6 16.34 11.54L19.16 11.54C19.17 11.54 19.17 11.54 19.18 11.54C19.46 11.53 19.71 11.37 19.85 11.11C20.03 10.8 20.03 10.4 19.84 10.04C19.63 9.64 19.36 9.3 19.12 9.01Z" fill="#8B8E9A" fill-opacity="1.000000" fill-rule="nonzero"/>
</svg>
