<svg width="16.667969" height="16.664062" viewBox="0 0 16.668 16.6641" fill="none" xmlns="http://www.w3.org/2000/svg" xmlns:xlink="http://www.w3.org/1999/xlink">
	<desc>
			Created with Pixso.
	</desc>
	<defs/>
	<path id="Vector" d="M6.95 16.66C3 15.95 0 12.52 0 8.37C0 3.76 3.75 0 8.33 0C12.91 0 16.66 3.76 16.66 8.37C16.66 12.52 13.66 15.95 9.7 16.66L9.49 16.49L9.49 10.7L11.2 10.7L11.55 8.38L9.49 8.38L9.49 6.77C9.49 6.1 9.73 5.6 10.66 5.6L11.66 5.6L11.66 3.5C11.12 3.41 10.5 3.33 9.96 3.33C8.17 3.33 6.93 4.49 6.93 6.56L6.93 8.38L5 8.38L5 10.7L6.93 10.7L6.93 16.53C6.98 16.55 7.03 16.56 7.07 16.57L6.95 16.66Z" fill="#8B8E9A" fill-opacity="1.000000" fill-rule="evenodd"/>
</svg>
