<svg width="415.695312" height="473.812500" viewBox="0 0 415.695 473.812" fill="none" xmlns="http://www.w3.org/2000/svg" xmlns:xlink="http://www.w3.org/1999/xlink">
	<desc>
			Created with Pixso.
	</desc>
	<defs/>
	<path id="Polygon 24" d="M197.84 2.67L10 111.13C3.81 114.7 0 121.3 0 128.45L0 345.35C0 352.5 3.81 359.1 10 362.68L197.84 471.13C204.03 474.7 211.66 474.7 217.84 471.13L405.69 362.68C411.88 359.1 415.69 352.5 415.69 345.35L415.69 128.45C415.69 121.3 411.88 114.7 405.69 111.13L217.84 2.67C211.66 -0.9 204.03 -0.9 197.84 2.67Z" fill="#FFFFFF" fill-opacity="1.000000" fill-rule="evenodd"/>
	<path id="Polygon 24" d="M10 111.13C3.81 114.7 0 121.3 0 128.45L0 345.35C0 352.5 3.81 359.1 10 362.68L197.84 471.13C204.03 474.7 211.66 474.7 217.84 471.13L405.69 362.68C411.88 359.1 415.69 352.5 415.69 345.35L415.69 128.45C415.69 121.3 411.88 114.7 405.69 111.13L217.84 2.67C211.66 -0.9 204.03 -0.9 197.84 2.67L10 111.13ZM10.5 112C4.62 115.39 1 121.66 1 128.45L1 345.35C1 352.14 4.62 358.42 10.5 361.81L198.34 470.26C204.22 473.66 211.46 473.66 217.34 470.26L405.19 361.81C411.07 358.42 414.69 352.14 414.69 345.35L414.69 128.45C414.69 121.66 411.07 115.39 405.19 112L217.34 3.54C211.46 0.14 204.22 0.14 198.34 3.54L10.5 112Z" fill="#DEE3E8" fill-opacity="1.000000" fill-rule="evenodd"/>
</svg>
