<svg width="64.000000" height="64.000000" viewBox="0 0 64 64" fill="none" xmlns="http://www.w3.org/2000/svg" xmlns:xlink="http://www.w3.org/1999/xlink">
	<desc>
			Created with Pixso.
	</desc>
	<defs>
		<clipPath id="clip33_31104">
			<rect id="игра" rx="-0.500000" width="23.000000" height="23.000000" transform="translate(20.500000 20.500000)" fill="white" fill-opacity="0"/>
		</clipPath>
		<radialGradient gradientTransform="translate(32 -33.098) rotate(90) scale(107.098 73.3011)" cx="0.000000" cy="0.000000" r="1.000000" id="paint_radial_33_31103_0" gradientUnits="userSpaceOnUse">
			<stop stop-color="#F36DFF"/>
			<stop offset="0.605000" stop-color="#8745FE"/>
			<stop offset="1.000000" stop-color="#17BAE5"/>
		</radialGradient>
	</defs>
	<path id="STROKE" d="M28 2.31L8.28 13.68C5.81 15.11 4.28 17.75 4.28 20.61L4.28 43.38C4.28 46.24 5.81 48.88 8.28 50.31L28 61.68C30.47 63.11 33.52 63.11 36 61.68L55.71 50.31C58.18 48.88 59.71 46.24 59.71 43.38L59.71 20.61C59.71 17.75 58.18 15.11 55.71 13.68L36 2.31C33.52 0.88 30.47 0.88 28 2.31Z" fill="#FFFFFF" fill-opacity="1.000000" fill-rule="evenodd"/>
	<path id="STROKE" d="M8.28 13.68C5.81 15.11 4.28 17.75 4.28 20.61L4.28 43.38C4.28 46.24 5.81 48.88 8.28 50.31L28 61.68C30.47 63.11 33.52 63.11 36 61.68L55.71 50.31C58.18 48.88 59.71 46.24 59.71 43.38L59.71 20.61C59.71 17.75 58.18 15.11 55.71 13.68L36 2.31C33.52 0.88 30.47 0.88 28 2.31L8.28 13.68ZM9.28 15.42C7.42 16.49 6.28 18.47 6.28 20.61L6.28 43.38C6.28 45.52 7.42 47.5 9.28 48.57L29 59.96C30.85 61.03 33.14 61.03 35 59.96L54.71 48.57C56.57 47.5 57.71 45.52 57.71 43.38L57.71 20.61C57.71 18.47 56.57 16.49 54.71 15.42L35 4.03C33.14 2.96 30.85 2.96 29 4.03L9.28 15.42Z" fill="url(#paint_radial_33_31103_0)" fill-opacity="1.000000" fill-rule="evenodd"/>
	<rect id="игра" rx="-0.500000" width="23.000000" height="23.000000" transform="translate(20.500000 20.500000)" fill="#FFFFFF" fill-opacity="0"/>
	<g clip-path="url(#clip33_31104)">
		<path id="Vector" d="M37.5 37.5C40 41 43.94 38.41 43 35C41.57 29.87 40.8 27.01 40.39 25.5C40.16 24.62 39.35 24 38.43 24L25.56 24C24.64 24 23.84 24.62 23.62 25.51C22.78 28.86 22.03 31.8 21.14 35C20.19 38.41 24.14 41 26.64 37.5M38 28.5L38.01 28.5M36.48 27L36.5 27M36.48 30L36.5 30M35 28.5L35.01 28.5M27 27L27 30M25.5 28.5L28.5 28.5M30 34C30 32.89 29.1 32 28 32C26.89 32 26 32.89 26 34C26 35.1 26.89 36 28 36C29.1 36 30 35.1 30 34ZM38 34C38 32.89 37.1 32 36 32C34.89 32 34 32.89 34 34C34 35.1 34.89 36 36 36C37.1 36 38 35.1 38 34Z" stroke="#8E35FF" stroke-opacity="1.000000" stroke-width="1.500000" stroke-linejoin="round" stroke-linecap="round"/>
	</g>
</svg>
