<svg width="537.000000" height="719.000000" viewBox="0 0 537 719" fill="none" xmlns="http://www.w3.org/2000/svg" xmlns:xlink="http://www.w3.org/1999/xlink">
	<desc>
			Created with Pixso.
	</desc>
	<defs/>
	<path id="Vector" d="M321.24 0L343.8 39.07L392.04 39.07L414.48 0L415.44 0L392.52 39.9L343.2 39.9L320.28 0L321.24 0Z" fill="#F8F2FF" fill-opacity="1.000000" fill-rule="nonzero"/>
	<path id="Vector" d="M468.59 0L491.03 39.07L537 39.07L537 39.9L490.55 39.9L467.52 0L468.59 0Z" fill="#F8F2FF" fill-opacity="1.000000" fill-rule="nonzero"/>
	<path id="Vector" d="M268.68 0L245.99 39.54L270.11 81.48L318.35 81.48L342.47 39.54L319.68 0L320.75 0L343.31 39.3L343.43 39.54L318.83 82.44L269.51 82.44L245.03 39.78L244.91 39.54L267.59 0L268.68 0Z" fill="#F8F2FF" fill-opacity="1.000000" fill-rule="nonzero"/>
	<path id="Vector" d="M416.03 0L393.23 39.54L417.35 81.48L465.59 81.48L489.71 39.54L467.03 0L467.99 0L490.67 39.3L490.79 39.54L466.19 82.44L416.87 82.44L392.39 39.78L392.27 39.54L414.95 0L416.03 0Z" fill="#F8F2FF" fill-opacity="1.000000" fill-rule="nonzero"/>
	<path id="Vector" d="M392.51 39.07L343.19 39.07L318.59 81.96L318.59 82.2L343.19 124.86L392.51 124.86L417.11 81.96L417.11 81.72L392.51 39.07ZM343.79 40.02L392.03 40.02L416.15 81.96L392.03 123.9L343.79 123.9L319.67 81.96L343.79 40.02Z" fill="#F8F2FF" fill-opacity="1.000000" fill-rule="nonzero"/>
	<path id="Vector" d="M537 40.02L491.03 40.02L466.91 81.96L491.03 123.9L537 123.9L537 124.86L490.55 124.86L465.96 82.2L465.84 81.96L490.55 39.07L537 39.07L537 40.02Z" fill="#F8F2FF" fill-opacity="1.000000" fill-rule="nonzero"/>
	<path id="Vector" d="M318.83 81.49L269.51 81.49L244.91 124.39L244.91 124.62L269.51 167.28L318.83 167.28L343.43 124.39L343.43 124.14L318.83 81.49ZM270.11 82.44L318.35 82.44L342.47 124.39L318.35 166.32L270.11 166.32L245.99 124.39L270.11 82.44Z" fill="#F8F2FF" fill-opacity="1.000000" fill-rule="nonzero"/>
	<path id="Vector" d="M466.19 81.49L416.87 81.49L392.27 124.39L392.27 124.62L416.87 167.28L466.19 167.28L490.79 124.39L490.79 124.14L466.19 81.49ZM417.47 82.44L465.71 82.44L489.83 124.39L465.71 166.32L417.47 166.32L393.35 124.39L417.47 82.44Z" fill="#F8F2FF" fill-opacity="1.000000" fill-rule="nonzero"/>
	<path id="Vector" d="M392.51 123.91L343.19 123.91L318.59 166.81L318.59 167.04L343.19 209.71L392.51 209.71L417.11 166.81L417.11 166.57L392.51 123.91ZM343.79 124.86L392.03 124.86L416.15 166.81L392.03 208.75L343.79 208.75L319.67 166.81L343.79 124.86Z" fill="#F8F2FF" fill-opacity="1.000000" fill-rule="nonzero"/>
	<path id="Vector" d="M537 124.86L491.03 124.86L466.91 166.81L491.03 208.75L537 208.75L537 209.71L490.55 209.71L465.96 167.04L465.84 166.81L490.55 123.91L537 123.91L537 124.86Z" fill="#F8F2FF" fill-opacity="1.000000" fill-rule="nonzero"/>
	<path id="Vector" d="M318.83 166.45L269.51 166.45L244.91 209.35L244.91 209.58L269.51 252.25L318.83 252.25L343.43 209.35L343.43 209.1L318.83 166.45ZM270.11 167.4L318.35 167.4L342.47 209.35L318.35 251.28L270.11 251.28L245.99 209.35L270.11 167.4Z" fill="#F8F2FF" fill-opacity="1.000000" fill-rule="nonzero"/>
	<path id="Vector" d="M466.19 166.45L416.87 166.45L392.27 209.35L392.27 209.58L416.87 252.25L466.19 252.25L490.79 209.35L490.79 209.1L466.19 166.45ZM417.47 167.4L465.71 167.4L489.83 209.35L465.71 251.28L417.47 251.28L393.35 209.35L417.47 167.4Z" fill="#F8F2FF" fill-opacity="1.000000" fill-rule="nonzero"/>
	<path id="Vector" d="M245.16 208.87L195.84 208.87L171.23 251.77L171.23 252L195.84 294.67L245.16 294.67L269.75 251.77L269.75 251.53L245.16 208.87ZM196.43 209.82L244.68 209.82L268.79 251.77L244.68 293.71L196.43 293.71L172.31 251.77L196.43 209.82Z" fill="#F8F2FF" fill-opacity="1.000000" fill-rule="nonzero"/>
	<path id="Vector" d="M392.51 208.87L343.19 208.87L318.59 251.77L318.59 252L343.19 294.67L392.51 294.67L417.11 251.77L417.11 251.53L392.51 208.87ZM343.79 209.82L392.03 209.82L416.15 251.77L392.03 293.71L343.79 293.71L319.67 251.77L343.79 209.82Z" fill="#F8F2FF" fill-opacity="1.000000" fill-rule="nonzero"/>
	<path id="Vector" d="M537 209.7L491.03 209.7L466.91 251.64L491.03 293.58L537 293.58L537 294.54L490.55 294.54L465.96 251.88L465.84 251.64L490.55 208.86L537 208.86L537 209.7Z" fill="#F8F2FF" fill-opacity="1.000000" fill-rule="nonzero"/>
	<path id="Vector" d="M171.48 251.29L122.16 251.29L97.55 294.19L97.55 294.43L122.16 337.09L171.48 337.09L196.07 294.19L196.07 293.95L171.48 251.29ZM122.75 252.25L171 252.25L195.11 294.19L171 336.13L122.75 336.13L98.63 294.19L122.75 252.25Z" fill="#F8F2FF" fill-opacity="1.000000" fill-rule="nonzero"/>
	<path id="Vector" d="M318.83 251.29L269.51 251.29L244.91 294.19L244.91 294.43L269.51 337.09L318.83 337.09L343.43 294.19L343.43 293.95L318.83 251.29ZM270.11 252.25L318.35 252.25L342.47 294.19L318.35 336.13L270.11 336.13L245.99 294.19L270.11 252.25Z" fill="#F8F2FF" fill-opacity="1.000000" fill-rule="nonzero"/>
	<path id="Vector" d="M466.19 251.29L416.87 251.29L392.27 294.19L392.27 294.43L416.87 337.09L466.19 337.09L490.79 294.19L490.79 293.95L466.19 251.29ZM417.47 252.25L465.71 252.25L489.83 294.19L465.71 336.13L417.47 336.13L393.35 294.19L417.47 252.25Z" fill="#F8F2FF" fill-opacity="1.000000" fill-rule="nonzero"/>
	<path id="Vector" d="M245.16 293.71L195.84 293.71L171.23 336.61L171.23 336.85L195.84 379.51L245.16 379.51L269.75 336.61L269.75 336.37L245.16 293.71ZM196.43 294.67L244.68 294.67L268.79 336.61L244.68 378.55L196.43 378.55L172.31 336.61L196.43 294.67Z" fill="#F8F2FF" fill-opacity="1.000000" fill-rule="nonzero"/>
	<path id="Vector" d="M392.52 293.71L343.2 293.71L318.6 336.61L318.6 336.85L343.2 379.51L392.52 379.51L417.12 336.61L417.12 336.37L392.52 293.71ZM343.8 294.67L392.04 294.67L416.16 336.61L392.04 378.55L343.8 378.55L319.68 336.61L343.8 294.67Z" fill="#F8F2FF" fill-opacity="1.000000" fill-rule="nonzero"/>
	<path id="Vector" d="M537 294.54L491.03 294.54L466.91 336.49L491.03 378.55L537 378.55L537 379.39L490.55 379.39L465.96 336.72L465.84 336.49L490.55 293.71L537 293.71L537 294.54Z" fill="#F8F2FF" fill-opacity="1.000000" fill-rule="nonzero"/>
	<path id="Vector" d="M171.48 336.13L122.16 336.13L97.55 379.03L97.55 379.26L122.16 421.93L171.48 421.93L196.07 379.03L196.07 378.78L171.48 336.13ZM122.75 337.08L171 337.08L195.11 379.03L171 420.96L122.75 420.96L98.63 379.03L122.75 337.08Z" fill="#F8F2FF" fill-opacity="1.000000" fill-rule="nonzero"/>
	<path id="Vector" d="M318.83 336.13L269.51 336.13L244.91 379.03L244.91 379.26L269.51 421.93L318.83 421.93L343.43 379.03L343.43 378.78L318.83 336.13ZM270.11 337.08L318.35 337.08L342.47 379.03L318.35 420.96L270.11 420.96L245.99 379.03L270.11 337.08Z" fill="#F8F2FF" fill-opacity="1.000000" fill-rule="nonzero"/>
	<path id="Vector" d="M466.19 336.13L416.87 336.13L392.27 379.03L392.27 379.26L416.87 421.93L466.19 421.93L490.79 379.03L490.79 378.78L466.19 336.13ZM417.47 337.08L465.71 337.08L489.83 379.03L465.71 420.96L417.47 420.96L393.35 379.03L417.47 337.08Z" fill="#F8F2FF" fill-opacity="1.000000" fill-rule="nonzero"/>
	<path id="Vector" d="M245.16 378.55L195.84 378.55L171.23 421.45L171.23 421.68L195.84 464.35L245.16 464.35L269.75 421.45L269.75 421.21L245.16 378.55ZM196.43 379.5L244.68 379.5L268.79 421.45L244.68 463.39L196.43 463.39L172.31 421.45L196.43 379.5Z" fill="#F8F2FF" fill-opacity="1.000000" fill-rule="nonzero"/>
	<path id="Vector" d="M392.51 378.55L343.19 378.55L318.59 421.45L318.59 421.68L343.19 464.35L392.51 464.35L417.11 421.45L417.11 421.21L392.51 378.55ZM343.79 379.5L392.03 379.5L416.15 421.45L392.03 463.39L343.79 463.39L319.67 421.45L343.79 379.5Z" fill="#F8F2FF" fill-opacity="1.000000" fill-rule="nonzero"/>
	<path id="Vector" d="M537 379.51L491.03 379.51L466.91 421.45L491.03 463.39L537 463.39L537 464.23L490.55 464.23L465.96 421.69L465.84 421.45L490.55 378.55L537 378.55L537 379.51Z" fill="#F8F2FF" fill-opacity="1.000000" fill-rule="nonzero"/>
	<path id="Vector" d="M171.48 420.97L122.16 420.97L97.55 463.87L97.55 464.1L122.16 506.77L171.48 506.77L196.07 463.87L196.07 463.63L171.48 420.97ZM122.75 421.93L171 421.93L195.11 463.87L171 505.81L122.75 505.81L98.63 463.87L122.75 421.93Z" fill="#F8F2FF" fill-opacity="1.000000" fill-rule="nonzero"/>
	<path id="Vector" d="M318.83 420.97L269.51 420.97L244.91 463.87L244.91 464.1L269.51 506.77L318.83 506.77L343.43 463.87L343.43 463.63L318.83 420.97ZM270.11 421.93L318.35 421.93L342.47 463.87L318.35 505.81L270.11 505.81L245.99 463.87L270.11 421.93Z" fill="#F8F2FF" fill-opacity="1.000000" fill-rule="nonzero"/>
	<path id="Vector" d="M466.19 420.97L416.87 420.97L392.27 463.87L392.27 464.1L416.87 506.77L466.19 506.77L490.79 463.87L490.79 463.63L466.19 420.97ZM417.47 421.93L465.71 421.93L489.83 463.87L465.71 505.81L417.47 505.81L393.35 463.87L417.47 421.93Z" fill="#F8F2FF" fill-opacity="1.000000" fill-rule="nonzero"/>
	<path id="Vector" d="M245.16 463.39L195.84 463.39L171.23 506.29L171.23 506.53L195.84 549.19L245.16 549.19L269.75 506.29L269.75 506.05L245.16 463.39ZM196.43 464.35L244.68 464.35L268.79 506.29L244.68 548.23L196.43 548.23L172.31 506.29L196.43 464.35Z" fill="#F8F2FF" fill-opacity="1.000000" fill-rule="nonzero"/>
	<path id="Vector" d="M392.52 463.39L343.2 463.39L318.6 506.29L318.6 506.53L343.2 549.19L392.52 549.19L417.12 506.29L417.12 506.05L392.52 463.39ZM343.8 464.35L392.04 464.35L416.16 506.29L392.04 548.23L343.8 548.23L319.68 506.29L343.8 464.35Z" fill="#F8F2FF" fill-opacity="1.000000" fill-rule="nonzero"/>
	<path id="Vector" d="M537 464.35L491.03 464.35L466.91 506.29L491.03 548.24L537 548.24L537 549.07L490.55 549.07L465.96 506.53L465.84 506.29L490.55 463.39L537 463.39L537 464.35Z" fill="#F8F2FF" fill-opacity="1.000000" fill-rule="nonzero"/>
	<path id="Vector" d="M171.48 505.82L122.16 505.82L97.55 548.71L97.55 548.95L122.16 591.61L171.48 591.61L196.07 548.71L196.07 548.47L171.48 505.82ZM122.75 506.77L171 506.77L195.11 548.71L171 590.65L122.75 590.65L98.63 548.71L122.75 506.77Z" fill="#F8F2FF" fill-opacity="1.000000" fill-rule="nonzero"/>
	<path id="Vector" d="M466.19 505.82L416.87 505.82L392.27 548.71L392.27 548.95L416.87 591.61L466.19 591.61L490.79 548.71L490.79 548.47L466.19 505.82ZM417.47 506.77L465.71 506.77L489.83 548.71L465.71 590.65L417.47 590.65L393.35 548.71L417.47 506.77Z" fill="#F8F2FF" fill-opacity="1.000000" fill-rule="nonzero"/>
	<path id="Vector" d="M537 549.19L491.03 549.19L466.91 591.14L491.03 633.07L537 633.07L537 634.03L490.55 634.03L465.96 591.37L465.84 591.14L490.55 548.24L537 548.24L537 549.19Z" fill="#F8F2FF" fill-opacity="1.000000" fill-rule="nonzero"/>
	<path id="Vector" d="M171.48 590.66L122.16 590.66L97.55 633.56L97.55 633.79L122.16 676.46L171.48 676.46L196.07 633.56L196.07 633.32L171.48 590.66ZM122.75 591.61L171 591.61L195.11 633.56L171 675.5L122.75 675.5L98.63 633.56L122.75 591.61Z" fill="#F8F2FF" fill-opacity="1.000000" fill-rule="nonzero"/>
	<path id="Vector" d="M466.19 590.66L416.87 590.66L392.27 633.56L392.27 633.79L416.87 676.46L466.19 676.46L490.79 633.56L490.79 633.32L466.19 590.66ZM417.47 591.61L465.71 591.61L489.83 633.56L465.71 675.5L417.47 675.5L393.35 633.56L417.47 591.61Z" fill="#F8F2FF" fill-opacity="1.000000" fill-rule="nonzero"/>
	<path id="Vector" d="M537 634.03L491.03 634.03L466.91 675.98L491.03 717.92L537 717.92L537 718.88L490.55 718.88L465.96 676.21L465.84 675.98L490.55 633.2L537 633.2L537 634.03Z" fill="#F8F2FF" fill-opacity="1.000000" fill-rule="nonzero"/>
	<path id="Vector" d="M194.75 719L195.12 718.39L171 676.46L122.75 676.46L98.64 718.39L99 719L97.91 719L97.8 718.64L97.67 718.39L122.28 675.61L171.48 675.61L196.07 718.16L196.19 718.39L195.84 719L194.75 719Z" fill="#F8F2FF" fill-opacity="1.000000" fill-rule="nonzero"/>
	<path id="Vector" d="M489.47 719L489.71 718.39L465.59 676.46L417.35 676.46L393.23 718.39L393.59 719L392.51 719L392.39 718.64L392.27 718.39L416.87 675.61L466.19 675.61L490.67 718.16L490.79 718.39L490.43 719L489.47 719Z" fill="#F8F2FF" fill-opacity="1.000000" fill-rule="nonzero"/>
	<path id="Vector" d="M537 719L491.03 719L489.96 719L490.56 718.03L537 718.03L537 719Z" fill="#F8F2FF" fill-opacity="1.000000" fill-rule="nonzero"/>
	<g opacity="0.230000">
		<path id="Vector" d="M76.19 0L98.75 39.18L147 39.18L169.55 0L170.52 0L147.47 40.14L98.27 40.14L75.23 0L76.19 0Z" fill="#F8F2FF" fill-opacity="1.000000" fill-rule="nonzero"/>
	</g>
	<g opacity="0.410000">
		<path id="Vector" d="M223.55 0L246 39.18L294.24 39.18L316.8 0L317.87 0L294.84 40.14L245.52 40.14L222.48 0L223.55 0Z" fill="#F8F2FF" fill-opacity="1.000000" fill-rule="nonzero"/>
	</g>
	<g opacity="0.260000">
		<path id="Vector" d="M370.8 0L393.35 39.18L441.6 39.18L464.16 0L465.12 0L442.07 40.14L392.87 40.14L369.84 0L370.8 0Z" fill="#F8F2FF" fill-opacity="1.000000" fill-rule="nonzero"/>
	</g>
	<g opacity="0.440000">
		<path id="Vector" d="M23.76 0L0.96 39.66L25.07 81.6L73.32 81.6L97.44 39.66L74.64 0L75.71 0L98.39 39.42L98.51 39.66L73.8 82.56L24.6 82.56L0.12 39.89L0 39.66L22.8 0L23.76 0Z" fill="#F8F2FF" fill-opacity="1.000000" fill-rule="nonzero"/>
	</g>
	<g opacity="0.430000">
		<path id="Vector" d="M171.11 0L148.31 39.66L172.43 81.6L220.68 81.6L244.79 39.66L222 0L222.95 0L245.63 39.42L245.75 39.66L221.16 82.56L171.84 82.56L147.35 39.89L147.23 39.66L170.03 0L171.11 0Z" fill="#F8F2FF" fill-opacity="1.000000" fill-rule="nonzero"/>
	</g>
	<g opacity="0.820000">
		<path id="Vector" d="M318.35 0L295.55 39.66L319.67 81.6L367.91 81.6L392.03 39.66L369.23 0L370.31 0L392.99 39.42L393.11 39.66L368.51 82.56L319.19 82.56L294.71 39.89L294.59 39.66L317.39 0L318.35 0Z" fill="#F8F2FF" fill-opacity="1.000000" fill-rule="nonzero"/>
	</g>
	<g opacity="0.500000">
		<path id="Vector" d="M536.99 35.59L516.59 0L517.55 0L536.99 33.67L536.99 35.59Z" fill="#F8F2FF" fill-opacity="1.000000" fill-rule="nonzero"/>
	</g>
	<g opacity="0.280000">
		<path id="Vector" d="M465.71 0L442.91 39.67L467.03 81.6L515.27 81.6L536.99 43.74L536.99 45.53L515.75 82.57L466.43 82.57L441.95 39.9L441.83 39.67L464.63 0L465.71 0Z" fill="#F8F2FF" fill-opacity="1.000000" fill-rule="nonzero"/>
	</g>
	<g opacity="0.410000">
		<path id="Vector" d="M147.48 39.18L98.16 39.18L73.55 82.08L73.55 82.32L98.16 124.98L147.48 124.98L172.07 82.08L172.07 81.84L147.48 39.18ZM98.75 40.14L147 40.14L171.11 82.08L147 124.02L98.75 124.02L74.63 82.08L98.75 40.14Z" fill="#F8F2FF" fill-opacity="1.000000" fill-rule="nonzero"/>
	</g>
	<g opacity="0.250000">
		<path id="Vector" d="M294.83 39.18L245.52 39.18L220.91 82.08L220.91 82.32L245.52 124.98L294.83 124.98L319.43 82.08L319.43 81.84L294.83 39.18ZM246.11 40.14L294.35 40.14L318.47 82.08L294.35 124.02L246.11 124.02L221.99 82.08L246.11 40.14Z" fill="#F8F2FF" fill-opacity="1.000000" fill-rule="nonzero"/>
	</g>
	<g opacity="0.270000">
		<path id="Vector" d="M442.07 39.18L392.76 39.18L368.16 82.08L368.16 82.32L392.76 124.98L442.07 124.98L466.68 82.08L466.68 81.84L442.07 39.18ZM393.35 40.14L441.6 40.14L465.71 82.08L441.6 124.02L393.35 124.02L369.23 82.08L393.35 40.14Z" fill="#F8F2FF" fill-opacity="1.000000" fill-rule="nonzero"/>
	</g>
	<g opacity="0.290000">
		<path id="Vector" d="M368.51 81.73L319.19 81.73L294.59 124.63L294.59 124.86L319.19 167.53L368.51 167.53L393.11 124.63L393.11 124.39L368.51 81.73ZM319.79 82.68L368.03 82.68L392.15 124.63L368.03 166.57L319.79 166.57L295.67 124.63L319.79 82.68Z" fill="#F8F2FF" fill-opacity="1.000000" fill-rule="nonzero"/>
	</g>
	<g opacity="0.650000">
		<path id="Vector" d="M536.99 120.43L515.27 82.56L467.03 82.56L442.91 124.5L467.03 166.44L515.27 166.44L536.99 128.7L536.99 130.5L515.75 167.4L466.43 167.4L441.95 124.74L441.83 124.5L466.43 81.72L515.75 81.72L536.99 118.63L536.99 120.43Z" fill="#F8F2FF" fill-opacity="1.000000" fill-rule="nonzero"/>
	</g>
	<g opacity="0.990000">
		<path id="Vector" d="M294.83 124.15L245.52 124.15L220.91 167.05L220.91 167.28L245.52 209.95L294.83 209.95L319.43 167.05L319.43 166.81L294.83 124.15ZM246.11 125.1L294.35 125.1L318.47 167.05L294.35 208.99L246.11 208.99L221.99 167.05L246.11 125.1Z" fill="#F8F2FF" fill-opacity="1.000000" fill-rule="nonzero"/>
	</g>
	<g opacity="0.400000">
		<path id="Vector" d="M442.07 124.15L392.76 124.15L368.16 167.05L368.16 167.28L392.76 209.95L442.07 209.95L466.68 167.05L466.68 166.81L442.07 124.15ZM393.35 125.1L441.6 125.1L465.71 167.05L441.6 208.99L393.35 208.99L369.23 167.05L393.35 125.1Z" fill="#F8F2FF" fill-opacity="1.000000" fill-rule="nonzero"/>
	</g>
	<g opacity="0.320000">
		<path id="Vector" d="M368.51 166.57L319.19 166.57L294.59 209.46L294.59 209.7L319.19 252.36L368.51 252.36L393.11 209.46L393.11 209.22L368.51 166.57ZM319.79 167.52L368.03 167.52L392.15 209.46L368.03 251.4L319.79 251.4L295.67 209.46L319.79 167.52Z" fill="#F8F2FF" fill-opacity="1.000000" fill-rule="nonzero"/>
	</g>
	<g opacity="0.950000">
		<path id="Vector" d="M536.99 205.27L515.27 167.4L467.03 167.4L442.91 209.35L467.03 251.28L515.27 251.28L536.99 213.54L536.99 215.34L515.75 252.25L466.43 252.25L441.95 209.58L441.83 209.35L466.43 166.57L515.75 166.57L536.99 203.47L536.99 205.27Z" fill="#F8F2FF" fill-opacity="1.000000" fill-rule="nonzero"/>
	</g>
	<g opacity="0.740000">
		<path id="Vector" d="M147.48 208.99L98.16 208.99L73.55 251.89L73.55 252.12L98.16 294.78L147.48 294.78L172.07 251.89L172.07 251.64L147.48 208.99ZM98.75 209.94L147 209.94L171.11 251.89L147 293.82L98.75 293.82L74.63 251.89L98.75 209.94Z" fill="#F8F2FF" fill-opacity="1.000000" fill-rule="nonzero"/>
	</g>
	<g opacity="0.490000">
		<path id="Vector" d="M294.83 208.99L245.52 208.99L220.91 251.89L220.91 252.12L245.52 294.78L294.83 294.78L319.43 251.89L319.43 251.64L294.83 208.99ZM246.11 209.94L294.35 209.94L318.47 251.89L294.35 293.82L246.11 293.82L221.99 251.89L246.11 209.94Z" fill="#F8F2FF" fill-opacity="1.000000" fill-rule="nonzero"/>
	</g>
	<g opacity="0.990000">
		<path id="Vector" d="M442.07 208.99L392.76 208.99L368.16 251.89L368.16 252.12L392.76 294.78L442.07 294.78L466.68 251.89L466.68 251.64L442.07 208.99ZM393.35 209.94L441.6 209.94L465.71 251.89L441.6 293.82L393.35 293.82L369.23 251.89L393.35 209.94Z" fill="#F8F2FF" fill-opacity="1.000000" fill-rule="nonzero"/>
	</g>
	<g opacity="0.740000">
		<path id="Vector" d="M221.16 251.41L171.84 251.41L147.23 294.31L147.23 294.54L171.84 337.21L221.16 337.21L245.75 294.31L245.75 294.07L221.16 251.41ZM172.43 252.36L220.68 252.36L244.79 294.31L220.68 336.25L172.43 336.25L148.31 294.31L172.43 252.36Z" fill="#F8F2FF" fill-opacity="1.000000" fill-rule="nonzero"/>
	</g>
	<g opacity="0.980000">
		<path id="Vector" d="M368.51 251.41L319.19 251.41L294.59 294.31L294.59 294.54L319.19 337.21L368.51 337.21L393.11 294.31L393.11 294.07L368.51 251.41ZM319.79 252.36L368.03 252.36L392.15 294.31L368.03 336.25L319.79 336.25L295.67 294.31L319.79 252.36Z" fill="#F8F2FF" fill-opacity="1.000000" fill-rule="nonzero"/>
	</g>
	<g opacity="0.410000">
		<path id="Vector" d="M536.99 290.11L515.27 252.25L467.03 252.25L442.91 294.31L467.03 336.25L515.27 336.25L536.99 298.39L536.99 300.18L515.75 337.09L466.43 337.09L441.95 294.43L441.83 294.31L466.43 251.41L515.75 251.41L536.99 288.32L536.99 290.11Z" fill="#F8F2FF" fill-opacity="1.000000" fill-rule="nonzero"/>
	</g>
	<g opacity="0.240000">
		<path id="Vector" d="M147.48 293.83L98.16 293.83L73.55 336.73L73.55 336.96L98.16 379.63L147.48 379.63L172.07 336.73L172.07 336.49L147.48 293.83ZM98.75 294.78L147 294.78L171.11 336.73L147 378.67L98.75 378.67L74.63 336.73L98.75 294.78Z" fill="#F8F2FF" fill-opacity="1.000000" fill-rule="nonzero"/>
	</g>
	<g opacity="0.240000">
		<path id="Vector" d="M294.83 293.83L245.52 293.83L220.91 336.73L220.91 336.96L245.52 379.63L294.83 379.63L319.43 336.73L319.43 336.49L294.83 293.83ZM246.11 294.78L294.35 294.78L318.47 336.73L294.35 378.67L246.11 378.67L221.99 336.73L246.11 294.78Z" fill="#F8F2FF" fill-opacity="1.000000" fill-rule="nonzero"/>
	</g>
	<g opacity="0.980000">
		<path id="Vector" d="M442.07 293.83L392.76 293.83L368.16 336.73L368.16 336.96L392.76 379.63L442.07 379.63L466.68 336.73L466.68 336.49L442.07 293.83ZM393.35 294.78L441.6 294.78L465.71 336.73L441.6 378.67L393.35 378.67L369.23 336.73L393.35 294.78Z" fill="#F8F2FF" fill-opacity="1.000000" fill-rule="nonzero"/>
	</g>
	<g opacity="0.740000">
		<path id="Vector" d="M221.16 336.25L171.84 336.25L147.23 379.15L147.23 379.39L171.84 422.05L221.16 422.05L245.75 379.15L245.75 378.91L221.16 336.25ZM172.43 337.21L220.68 337.21L244.79 379.15L220.68 421.09L172.43 421.09L148.31 379.15L172.43 337.21Z" fill="#F8F2FF" fill-opacity="1.000000" fill-rule="nonzero"/>
	</g>
	<g opacity="0.640000">
		<path id="Vector" d="M368.51 336.25L319.19 336.25L294.59 379.15L294.59 379.39L319.19 422.05L368.51 422.05L393.11 379.15L393.11 378.91L368.51 336.25ZM319.79 337.21L368.03 337.21L392.15 379.15L368.03 421.09L319.79 421.09L295.67 379.15L319.79 337.21Z" fill="#F8F2FF" fill-opacity="1.000000" fill-rule="nonzero"/>
	</g>
	<g opacity="0.630000">
		<path id="Vector" d="M536.99 374.95L515.27 337.21L467.03 337.21L442.91 379.14L467.03 421.09L515.27 421.09L536.99 383.22L536.99 385.02L515.75 421.93L466.43 421.93L441.95 379.39L441.83 379.14L466.43 336.25L515.75 336.25L536.99 373.15L536.99 374.95Z" fill="#F8F2FF" fill-opacity="1.000000" fill-rule="nonzero"/>
	</g>
	<g opacity="0.820000">
		<path id="Vector" d="M294.83 378.68L245.52 378.68L220.91 421.57L220.91 421.81L245.52 464.47L294.83 464.47L319.43 421.57L319.43 421.33L294.83 378.68ZM246.11 379.63L294.35 379.63L318.47 421.57L294.35 463.51L246.11 463.51L221.99 421.57L246.11 379.63Z" fill="#F8F2FF" fill-opacity="1.000000" fill-rule="nonzero"/>
	</g>
	<g opacity="0.660000">
		<path id="Vector" d="M442.07 378.68L392.76 378.68L368.16 421.57L368.16 421.81L392.76 464.47L442.07 464.47L466.68 421.57L466.68 421.33L442.07 378.68ZM393.35 379.63L441.6 379.63L465.71 421.57L441.6 463.51L393.35 463.51L369.23 421.57L393.35 379.63Z" fill="#F8F2FF" fill-opacity="1.000000" fill-rule="nonzero"/>
	</g>
	<g opacity="0.910000">
		<path id="Vector" d="M221.16 421.09L171.84 421.09L147.23 463.99L147.23 464.22L171.84 506.89L221.16 506.89L245.75 463.99L245.75 463.75L221.16 421.09ZM172.43 422.04L220.68 422.04L244.79 463.99L220.68 505.93L172.43 505.93L148.31 463.99L172.43 422.04Z" fill="#F8F2FF" fill-opacity="1.000000" fill-rule="nonzero"/>
	</g>
	<g opacity="0.330000">
		<path id="Vector" d="M368.51 421.09L319.19 421.09L294.59 463.99L294.59 464.22L319.19 506.89L368.51 506.89L393.11 463.99L393.11 463.75L368.51 421.09ZM319.79 422.04L368.03 422.04L392.15 463.99L368.03 505.93L319.79 505.93L295.67 463.99L319.79 422.04Z" fill="#F8F2FF" fill-opacity="1.000000" fill-rule="nonzero"/>
	</g>
	<g opacity="0.830000">
		<path id="Vector" d="M536.99 459.79L515.27 422.05L467.03 422.05L442.91 463.99L467.03 505.93L515.27 505.93L536.99 468.07L536.99 469.86L515.75 506.77L466.43 506.77L441.95 464.23L441.83 463.99L466.43 421.09L515.75 421.09L536.99 458L536.99 459.79Z" fill="#F8F2FF" fill-opacity="1.000000" fill-rule="nonzero"/>
	</g>
	<g opacity="0.930000">
		<path id="Vector" d="M147.48 463.51L98.16 463.51L73.55 506.41L73.55 506.64L98.16 549.31L147.48 549.31L172.07 506.41L172.07 506.17L147.48 463.51ZM98.75 464.46L147 464.46L171.11 506.41L147 548.35L98.75 548.35L74.63 506.41L98.75 464.46Z" fill="#F8F2FF" fill-opacity="1.000000" fill-rule="nonzero"/>
	</g>
	<g opacity="0.880000">
		<path id="Vector" d="M294.83 463.51L245.52 463.51L220.91 506.41L220.91 506.64L245.52 549.31L294.83 549.31L319.43 506.41L319.43 506.17L294.83 463.51ZM246.11 464.46L294.35 464.46L318.47 506.41L294.35 548.35L246.11 548.35L221.99 506.41L246.11 464.46Z" fill="#F8F2FF" fill-opacity="1.000000" fill-rule="nonzero"/>
	</g>
	<g opacity="0.370000">
		<path id="Vector" d="M442.07 463.51L392.76 463.51L368.16 506.41L368.16 506.64L392.76 549.31L442.07 549.31L466.68 506.41L466.68 506.17L442.07 463.51ZM393.35 464.46L441.6 464.46L465.71 506.41L441.6 548.35L393.35 548.35L369.23 506.41L393.35 464.46Z" fill="#F8F2FF" fill-opacity="1.000000" fill-rule="nonzero"/>
	</g>
	<g opacity="0.810000">
		<path id="Vector" d="M221.16 505.94L171.84 505.94L147.23 548.84L147.23 549.07L171.84 591.74L221.16 591.74L245.75 548.84L245.75 548.6L221.16 505.94ZM172.43 506.89L220.68 506.89L244.79 548.84L220.68 590.78L172.43 590.78L148.31 548.84L172.43 506.89Z" fill="#F8F2FF" fill-opacity="1.000000" fill-rule="nonzero"/>
	</g>
	<g opacity="0.590000">
		<path id="Vector" d="M368.51 505.94L319.19 505.94L294.59 548.84L294.59 549.07L319.19 591.74L368.51 591.74L393.11 548.84L393.11 548.6L368.51 505.94ZM319.79 506.89L368.03 506.89L392.15 548.84L368.03 590.78L319.79 590.78L295.67 548.84L319.79 506.89Z" fill="#F8F2FF" fill-opacity="1.000000" fill-rule="nonzero"/>
	</g>
	<g opacity="0.520000">
		<path id="Vector" d="M536.99 544.76L515.27 506.89L467.03 506.89L442.91 548.84L467.03 590.78L515.27 590.78L536.99 552.91L536.99 554.83L515.75 591.74L466.43 591.74L441.95 549.07L441.83 548.84L466.43 505.94L515.75 505.94L536.99 542.96L536.99 544.76Z" fill="#F8F2FF" fill-opacity="1.000000" fill-rule="nonzero"/>
	</g>
	<g opacity="0.310000">
		<path id="Vector" d="M294.83 548.48L245.52 548.48L220.91 591.38L220.91 591.61L245.52 634.28L294.83 634.28L319.43 591.38L319.43 591.14L294.83 548.48ZM246.11 549.43L294.35 549.43L318.47 591.38L294.35 633.32L246.11 633.32L221.99 591.38L246.11 549.43Z" fill="#F8F2FF" fill-opacity="1.000000" fill-rule="nonzero"/>
	</g>
	<g opacity="0.700000">
		<path id="Vector" d="M442.07 548.48L392.76 548.48L368.16 591.38L368.16 591.61L392.76 634.28L442.07 634.28L466.68 591.38L466.68 591.14L442.07 548.48ZM393.35 549.43L441.6 549.43L465.71 591.38L441.6 633.32L393.35 633.32L369.23 591.38L393.35 549.43Z" fill="#F8F2FF" fill-opacity="1.000000" fill-rule="nonzero"/>
	</g>
	<path id="Vector" d="M221.16 590.89L171.84 590.89L147.23 633.79L147.23 634.03L171.84 676.69L221.16 676.69L245.75 633.79L245.75 633.55L221.16 590.89ZM172.43 591.85L220.68 591.85L244.79 633.79L220.68 675.73L172.43 675.73L148.31 633.79L172.43 591.85Z" fill="#F8F2FF" fill-opacity="1.000000" fill-rule="nonzero"/>
	<g opacity="0.360000">
		<path id="Vector" d="M368.51 590.89L319.19 590.89L294.59 633.79L294.59 634.03L319.19 676.69L368.51 676.69L393.11 633.79L393.11 633.55L368.51 590.89ZM319.79 591.85L368.03 591.85L392.15 633.79L368.03 675.73L319.79 675.73L295.67 633.79L319.79 591.85Z" fill="#F8F2FF" fill-opacity="1.000000" fill-rule="nonzero"/>
	</g>
	<g opacity="0.460000">
		<path id="Vector" d="M536.99 629.6L515.27 591.73L467.03 591.73L442.91 633.68L467.03 675.61L515.27 675.61L536.99 637.87L536.99 639.67L515.75 676.57L466.43 676.57L441.95 633.91L441.83 633.68L466.43 590.89L515.75 590.89L536.99 627.8L536.99 629.6Z" fill="#F8F2FF" fill-opacity="1.000000" fill-rule="nonzero"/>
	</g>
	<g opacity="0.560000">
		<path id="Vector" d="M147.48 633.32L98.16 633.32L73.55 676.21L73.55 676.46L98.27 719L147.59 719L172.19 676.1L172.19 675.85L147.59 633.2L147.48 633.32ZM98.75 634.28L147 634.28L171.11 676.21L147 718.03L98.75 718.03L74.63 676.1L98.75 634.15L98.75 634.28Z" fill="#F8F2FF" fill-opacity="1.000000" fill-rule="nonzero"/>
	</g>
	<g opacity="0.450000">
		<path id="Vector" d="M294.83 633.32L245.52 633.32L220.91 676.21L220.91 676.46L245.52 719L294.83 719L319.43 676.1L319.43 675.85L294.83 633.2L294.83 633.32ZM246.11 634.28L294.35 634.28L318.47 676.21L294.23 718.03L245.99 718.03L221.87 676.1L245.99 634.15L246.11 634.28Z" fill="#F8F2FF" fill-opacity="1.000000" fill-rule="nonzero"/>
	</g>
	<g opacity="0.890000">
		<path id="Vector" d="M442.07 633.32L392.76 633.32L368.16 676.21L368.16 676.46L392.87 719L442.19 719L466.8 676.1L466.8 675.85L442.19 633.2L442.07 633.32ZM393.35 634.28L441.6 634.28L465.71 676.21L441.6 718.03L393.35 718.03L369.23 676.1L393.35 634.15L393.35 634.28Z" fill="#F8F2FF" fill-opacity="1.000000" fill-rule="nonzero"/>
	</g>
	<g opacity="0.550000">
		<path id="Vector" d="M97.19 719L97.44 718.52L73.32 676.57L25.07 676.57L0.96 718.52L1.19 719L0.23 719L0.12 718.75L0 718.52L24.6 675.74L73.8 675.74L98.39 718.28L98.51 718.52L98.28 719L97.19 719Z" fill="#F8F2FF" fill-opacity="1.000000" fill-rule="nonzero"/>
	</g>
	<g opacity="0.840000">
		<path id="Vector" d="M244.55 719L244.79 718.52L220.68 676.57L172.43 676.57L148.31 718.52L148.55 719L147.47 719L147.35 718.75L147.23 718.52L171.84 675.74L221.16 675.74L245.63 718.28L245.75 718.52L245.52 719L244.55 719Z" fill="#F8F2FF" fill-opacity="1.000000" fill-rule="nonzero"/>
	</g>
	<g opacity="0.550000">
		<path id="Vector" d="M391.79 719L392.03 718.52L367.91 676.57L319.67 676.57L295.55 718.52L295.79 719L294.83 719L294.71 718.75L294.59 718.52L319.19 675.74L368.51 675.74L392.99 718.28L393.11 718.52L392.87 719L391.79 719Z" fill="#F8F2FF" fill-opacity="1.000000" fill-rule="nonzero"/>
	</g>
	<g opacity="0.400000">
		<path id="Vector" d="M536.99 714.44L515.27 676.57L467.03 676.57L442.91 718.52L443.15 719L442.07 719L441.95 718.75L441.83 718.52L466.43 675.74L515.75 675.74L536.99 712.64L536.99 714.44Z" fill="#F8F2FF" fill-opacity="1.000000" fill-rule="nonzero"/>
	</g>
</svg>
