<svg width="15.625000" height="15.625000" viewBox="0 0 15.625 15.625" fill="none" xmlns="http://www.w3.org/2000/svg" xmlns:xlink="http://www.w3.org/1999/xlink">
	<desc>
			Created with Pixso.
	</desc>
	<defs/>
	<path id="Vector" d="M10.31 7.81C10.31 8.3 10.16 8.78 9.89 9.2C9.61 9.6 9.22 9.92 8.76 10.12C8.31 10.31 7.8 10.35 7.32 10.26C6.83 10.17 6.39 9.92 6.04 9.57C5.69 9.23 5.45 8.78 5.35 8.29C5.26 7.81 5.31 7.31 5.5 6.85C5.69 6.39 6.01 6 6.42 5.73C6.83 5.46 7.31 5.31 7.81 5.31C8.47 5.31 9.1 5.57 9.57 6.04C10.04 6.51 10.31 7.14 10.31 7.81ZM15.62 4.37L15.62 11.25C15.62 12.4 15.16 13.52 14.34 14.34C13.52 15.16 12.41 15.62 11.25 15.62L4.37 15.62C3.21 15.62 2.1 15.16 1.28 14.34C0.46 13.52 0 12.4 0 11.25L0 4.37C0 3.21 0.46 2.1 1.28 1.28C2.1 0.46 3.21 0 4.37 0L11.25 0C12.41 0 13.52 0.46 14.34 1.28C15.16 2.1 15.62 3.21 15.62 4.37ZM11.56 7.81C11.56 7.07 11.34 6.34 10.92 5.72C10.51 5.1 9.93 4.63 9.24 4.35C8.56 4.06 7.8 3.99 7.08 4.13C6.35 4.28 5.68 4.63 5.16 5.16C4.63 5.68 4.27 6.35 4.13 7.07C3.98 7.8 4.06 8.56 4.34 9.25C4.63 9.92 5.11 10.51 5.73 10.92C6.34 11.34 7.07 11.56 7.81 11.56C8.8 11.56 9.76 11.16 10.46 10.46C11.16 9.75 11.56 8.8 11.56 7.81ZM12.81 3.75C12.81 3.56 12.75 3.38 12.65 3.22C12.55 3.07 12.4 2.95 12.23 2.88C12.06 2.81 11.87 2.79 11.69 2.82C11.51 2.86 11.34 2.95 11.21 3.08C11.08 3.21 10.99 3.38 10.95 3.57C10.91 3.75 10.93 3.93 11 4.1C11.07 4.28 11.19 4.42 11.35 4.53C11.5 4.63 11.69 4.68 11.87 4.68C12.12 4.68 12.36 4.58 12.53 4.41C12.71 4.23 12.81 4 12.81 3.75Z" fill="#8B8E9A" fill-opacity="1.000000" fill-rule="nonzero"/>
</svg>
