<svg width="24.000000" height="24.000000" viewBox="0 0 24 24" fill="none" xmlns="http://www.w3.org/2000/svg" xmlns:xlink="http://www.w3.org/1999/xlink">
	<desc>
			Created with Pixso.
	</desc>
	<defs>
		<clipPath id="clip54_30507">
			<rect id="Grid" rx="-0.500000" width="23.000000" height="23.000000" transform="translate(0.500000 0.500000)" fill="white" fill-opacity="0"/>
		</clipPath>
	</defs>
	<rect id="Grid" rx="-0.500000" width="23.000000" height="23.000000" transform="translate(0.500000 0.500000)" fill="#FFFFFF" fill-opacity="0"/>
	<g clip-path="url(#clip54_30507)">
		<path id="Vector" d="M20.25 5.25L20.25 10.87C20.25 10.97 20.21 11.07 20.14 11.14C20.07 11.21 19.97 11.25 19.87 11.25L12.75 11.25L12.75 4.12C12.75 4.02 12.78 3.92 12.85 3.85C12.92 3.78 13.02 3.75 13.12 3.75L18.75 3.75C19.14 3.75 19.53 3.9 19.81 4.18C20.09 4.46 20.25 4.85 20.25 5.25ZM10.87 3.75L5.25 3.75C4.85 3.75 4.46 3.9 4.18 4.18C3.9 4.46 3.75 4.85 3.75 5.25L3.75 10.87C3.75 10.97 3.78 11.07 3.85 11.14C3.92 11.21 4.02 11.25 4.12 11.25L11.25 11.25L11.25 4.12C11.25 4.02 11.21 3.92 11.14 3.85C11.07 3.78 10.97 3.75 10.87 3.75ZM19.87 12.75L12.75 12.75L12.75 19.87C12.75 19.97 12.78 20.07 12.85 20.14C12.92 20.21 13.02 20.25 13.12 20.25L18.75 20.25C19.14 20.25 19.53 20.09 19.81 19.81C20.09 19.53 20.25 19.14 20.25 18.75L20.25 13.12C20.25 13.02 20.21 12.92 20.14 12.85C20.07 12.78 19.97 12.75 19.87 12.75ZM3.75 13.12L3.75 18.75C3.75 19.14 3.9 19.53 4.18 19.81C4.46 20.09 4.85 20.25 5.25 20.25L10.87 20.25C10.97 20.25 11.07 20.21 11.14 20.14C11.21 20.07 11.25 19.97 11.25 19.87L11.25 12.75L4.12 12.75C4.02 12.75 3.92 12.78 3.85 12.85C3.78 12.92 3.75 13.02 3.75 13.12Z" fill="#181A26" fill-opacity="1.000000" fill-rule="nonzero"/>
	</g>
</svg>
