<svg width="64.000000" height="64.000000" viewBox="0 0 64 64" fill="none" xmlns="http://www.w3.org/2000/svg" xmlns:xlink="http://www.w3.org/1999/xlink">
	<desc>
			Created with Pixso.
	</desc>
	<defs>
		<clipPath id="clip33_31184">
			<rect id="Language" rx="-0.500000" width="23.000000" height="23.000000" transform="translate(20.500000 20.500000)" fill="white" fill-opacity="0"/>
		</clipPath>
		<radialGradient gradientTransform="translate(32 -33.098) rotate(90) scale(107.098 73.3011)" cx="0.000000" cy="0.000000" r="1.000000" id="paint_radial_33_31183_0" gradientUnits="userSpaceOnUse">
			<stop stop-color="#F36DFF"/>
			<stop offset="0.605000" stop-color="#8745FE"/>
			<stop offset="1.000000" stop-color="#17BAE5"/>
		</radialGradient>
	</defs>
	<path id="STROKE" d="M28 2.31L8.28 13.68C5.81 15.11 4.28 17.75 4.28 20.61L4.28 43.38C4.28 46.24 5.81 48.88 8.28 50.31L28 61.68C30.47 63.11 33.52 63.11 36 61.68L55.71 50.31C58.18 48.88 59.71 46.24 59.71 43.38L59.71 20.61C59.71 17.75 58.18 15.11 55.71 13.68L36 2.31C33.52 0.88 30.47 0.88 28 2.31Z" fill="#FFFFFF" fill-opacity="1.000000" fill-rule="evenodd"/>
	<path id="STROKE" d="M8.28 13.68C5.81 15.11 4.28 17.75 4.28 20.61L4.28 43.38C4.28 46.24 5.81 48.88 8.28 50.31L28 61.68C30.47 63.11 33.52 63.11 36 61.68L55.71 50.31C58.18 48.88 59.71 46.24 59.71 43.38L59.71 20.61C59.71 17.75 58.18 15.11 55.71 13.68L36 2.31C33.52 0.88 30.47 0.88 28 2.31L8.28 13.68ZM9.28 15.42C7.42 16.49 6.28 18.47 6.28 20.61L6.28 43.38C6.28 45.52 7.42 47.5 9.28 48.57L29 59.96C30.85 61.03 33.14 61.03 35 59.96L54.71 48.57C56.57 47.5 57.71 45.52 57.71 43.38L57.71 20.61C57.71 18.47 56.57 16.49 54.71 15.42L35 4.03C33.14 2.96 30.85 2.96 29 4.03L9.28 15.42Z" fill="url(#paint_radial_33_31183_0)" fill-opacity="1.000000" fill-rule="evenodd"/>
	<rect id="Language" rx="-0.500000" width="23.000000" height="23.000000" transform="translate(20.500000 20.500000)" fill="#FFFFFF" fill-opacity="0"/>
	<g clip-path="url(#clip33_31184)">
		<path id="Vector" d="M29 22.25C29.19 22.25 29.39 22.32 29.53 22.46C29.67 22.6 29.75 22.8 29.75 23L29.75 24.5C31.53 24.53 33.32 24.65 35.09 24.87C35.19 24.89 35.28 24.92 35.37 24.96C35.45 25.01 35.53 25.08 35.59 25.16C35.65 25.24 35.69 25.32 35.72 25.42C35.75 25.51 35.75 25.61 35.74 25.71C35.73 25.81 35.7 25.9 35.65 25.99C35.6 26.07 35.53 26.15 35.46 26.21C35.38 26.27 35.29 26.32 35.19 26.34C35.1 26.36 35 26.37 34.9 26.36C34.24 26.28 33.58 26.21 32.91 26.15C32.33 28.43 31.32 30.57 29.94 32.48C30.26 32.86 30.59 33.23 30.94 33.59C31.08 33.73 31.16 33.92 31.16 34.12C31.16 34.32 31.08 34.5 30.93 34.64C30.79 34.78 30.6 34.86 30.4 34.86C30.2 34.86 30.01 34.78 29.87 34.64C29.57 34.33 29.28 34.01 29 33.68C27.42 35.53 25.5 37.05 23.34 38.17C23.16 38.25 22.96 38.28 22.77 38.21C22.58 38.15 22.42 38.02 22.33 37.84C22.24 37.67 22.22 37.46 22.28 37.27C22.34 37.08 22.48 36.92 22.65 36.83C24.73 35.76 26.56 34.28 28.05 32.48C27.17 31.28 26.45 29.97 25.89 28.6C25.82 28.41 25.82 28.21 25.9 28.03C25.98 27.85 26.12 27.71 26.3 27.63C26.48 27.56 26.69 27.56 26.87 27.63C27.05 27.71 27.19 27.85 27.27 28.03C27.73 29.15 28.31 30.22 29 31.22C30.07 29.64 30.88 27.89 31.39 26.06C28.62 25.92 25.84 26.02 23.09 26.36C22.89 26.39 22.69 26.33 22.53 26.21C22.38 26.09 22.28 25.91 22.25 25.71C22.23 25.51 22.28 25.32 22.4 25.16C22.53 25 22.71 24.89 22.9 24.87C24.67 24.65 26.46 24.53 28.25 24.5L28.25 23C28.25 22.8 28.32 22.6 28.46 22.46C28.6 22.32 28.8 22.25 29 22.25ZM35.75 29C35.89 29 36.03 29.03 36.15 29.11C36.27 29.19 36.37 29.3 36.42 29.42L41.67 40.67C41.72 40.77 41.74 40.86 41.75 40.96C41.75 41.06 41.73 41.16 41.7 41.25C41.67 41.35 41.62 41.43 41.55 41.5C41.48 41.57 41.4 41.64 41.31 41.67C41.13 41.76 40.92 41.77 40.74 41.7C40.55 41.64 40.4 41.5 40.32 41.32L39.12 38.75L32.37 38.75L31.17 41.32C31.09 41.5 30.94 41.64 30.75 41.7C30.57 41.77 30.36 41.76 30.18 41.67C30 41.59 29.86 41.44 29.79 41.25C29.72 41.07 29.73 40.86 29.82 40.67L35.07 29.42C35.12 29.3 35.22 29.19 35.34 29.11C35.46 29.03 35.6 29 35.75 29ZM33.07 37.25L38.42 37.25L35.75 31.52L33.07 37.25Z" fill="#191A26" fill-opacity="1.000000" fill-rule="evenodd"/>
	</g>
</svg>
