<svg width="64.000000" height="64.000000" viewBox="0 0 64 64" fill="none" xmlns="http://www.w3.org/2000/svg" xmlns:xlink="http://www.w3.org/1999/xlink">
	<desc>
			Created with Pixso.
	</desc>
	<defs>
		<clipPath id="clip33_31234">
			<rect id="провокация" rx="-0.500000" width="23.000000" height="23.000000" transform="translate(20.500000 20.500000)" fill="white" fill-opacity="0"/>
		</clipPath>
		<radialGradient gradientTransform="translate(32 -33.098) rotate(90) scale(107.098 73.3011)" cx="0.000000" cy="0.000000" r="1.000000" id="paint_radial_33_31233_0" gradientUnits="userSpaceOnUse">
			<stop stop-color="#F36DFF"/>
			<stop offset="0.605000" stop-color="#8745FE"/>
			<stop offset="1.000000" stop-color="#17BAE5"/>
		</radialGradient>
	</defs>
	<path id="STROKE" d="M28 2.31L8.28 13.68C5.81 15.11 4.28 17.75 4.28 20.61L4.28 43.38C4.28 46.24 5.81 48.88 8.28 50.31L28 61.68C30.47 63.11 33.52 63.11 36 61.68L55.71 50.31C58.18 48.88 59.71 46.24 59.71 43.38L59.71 20.61C59.71 17.75 58.18 15.11 55.71 13.68L36 2.31C33.52 0.88 30.47 0.88 28 2.31Z" fill="#FFFFFF" fill-opacity="1.000000" fill-rule="evenodd"/>
	<path id="STROKE" d="M8.28 13.68C5.81 15.11 4.28 17.75 4.28 20.61L4.28 43.38C4.28 46.24 5.81 48.88 8.28 50.31L28 61.68C30.47 63.11 33.52 63.11 36 61.68L55.71 50.31C58.18 48.88 59.71 46.24 59.71 43.38L59.71 20.61C59.71 17.75 58.18 15.11 55.71 13.68L36 2.31C33.52 0.88 30.47 0.88 28 2.31L8.28 13.68ZM9.28 15.42C7.42 16.49 6.28 18.47 6.28 20.61L6.28 43.38C6.28 45.52 7.42 47.5 9.28 48.57L29 59.96C30.85 61.03 33.14 61.03 35 59.96L54.71 48.57C56.57 47.5 57.71 45.52 57.71 43.38L57.71 20.61C57.71 18.47 56.57 16.49 54.71 15.42L35 4.03C33.14 2.96 30.85 2.96 29 4.03L9.28 15.42Z" fill="url(#paint_radial_33_31233_0)" fill-opacity="1.000000" fill-rule="evenodd"/>
	<rect id="провокация" rx="-0.500000" width="23.000000" height="23.000000" transform="translate(20.500000 20.500000)" fill="#FFFFFF" fill-opacity="0"/>
	<g clip-path="url(#clip33_31234)">
		<path id="Vector" d="M33.42 23.14C33.63 22.9 34.01 23.11 33.92 23.42L32.1 30.11C32.05 30.31 32.19 30.5 32.39 30.5L39.55 30.5C39.82 30.5 39.95 30.81 39.77 31L30.57 40.85C30.36 41.09 29.98 40.88 30.07 40.57L31.89 33.88C31.94 33.68 31.8 33.5 31.6 33.5L24.44 33.5C24.17 33.5 24.04 33.18 24.22 32.99L33.42 23.14Z" stroke="#8E35FF" stroke-opacity="1.000000" stroke-width="1.500000" stroke-linejoin="round"/>
	</g>
</svg>

