<svg width="50.000000" height="50.000000" viewBox="0 0 50 50" fill="none" xmlns="http://www.w3.org/2000/svg" xmlns:xlink="http://www.w3.org/1999/xlink">
	<desc>
			Created with Pixso.
	</desc>
	<defs/>
	<mask id="mask5_39957" mask-type="alpha" maskUnits="userSpaceOnUse" x="0.000000" y="0.000000" width="50.000000" height="50.000000">
		<path id="Polygon 6" d="M21 2.31L7.34 10.18C4.87 11.61 3.34 14.25 3.34 17.11L3.34 32.88C3.34 35.74 4.87 38.38 7.34 39.81L21 47.68C23.47 49.11 26.52 49.11 29 47.68L42.65 39.81C45.12 38.38 46.65 35.74 46.65 32.88L46.65 17.11C46.65 14.25 45.12 11.61 42.65 10.18L29 2.31C26.52 0.88 23.47 0.88 21 2.31Z" fill="#D9D9D9" fill-opacity="1.000000" fill-rule="evenodd"/>
	</mask>
	<g mask="url(#mask5_39957)">
		<path id="Polygon 7" d="M21 2.31L7.34 10.18C4.87 11.61 3.34 14.25 3.34 17.11L3.34 32.88C3.34 35.74 4.87 38.38 7.34 39.81L21 47.68C23.47 49.11 26.52 49.11 29 47.68L42.65 39.81C45.12 38.38 46.65 35.74 46.65 32.88L46.65 17.11C46.65 14.25 45.12 11.61 42.65 10.18L29 2.31C26.52 0.88 23.47 0.88 21 2.31Z" fill="#FFFFFF" fill-opacity="1.000000" fill-rule="evenodd"/>
	</g>
	<g mask="url(#mask5_39957)">
		<path id="path4" d="M47.39 64.03L47.55 63.96L47.79 63.83L48.33 62.57L70 24.72L47.42 -14.19C47.46 -14.3 47.28 -14.46 47.28 -14.46L46.46 -15L25.5 -15L3.84 -14.97L2.72 -14.4L2.69 -14.4L-20 25.04L2.6 64.52L3.88 65L46.2 64.59L47.39 64.03ZM32.16 18.84C32.2 18.98 32.25 19.14 32.28 19.28C32.78 18.85 33.28 18.45 33.77 18.03L36.39 15.44C37.1 14.58 37.84 13.73 38.56 12.86C39.07 12.19 39.57 11.5 40.1 10.83C40.73 9.89 41.34 8.96 41.98 8.02C42.5 7.1 43.01 6.17 43.53 5.25C43.97 4.28 44.39 3.28 44.83 2.32C45.13 1.46 45.44 0.62 45.74 -0.25L46.48 -3.22C46.71 -4.47 46.95 -5.72 47.18 -6.97L47.41 -9.53L47.41 18.63L42.52 18.82L39.89 19.19L37.54 19.68L35.79 20.11L33.84 20.71L33.48 20.92L33.42 21.17L33.74 21.17L34.35 20.92L35.32 20.66L36.89 20.23C36.89 20.23 38.33 19.88 38.38 19.88C38.44 19.88 39.84 19.54 39.84 19.54L41.31 19.28C41.75 19.21 42.17 19.08 42.62 19.08L47.44 18.96L47.44 30.8C47.44 30.8 46.5 30.91 45.85 30.92C45.18 30.94 44.1 30.87 43.69 30.82C43.06 30.73 42.52 30.48 42.34 30.39C42.36 30.34 42.36 30.27 42.36 30.2C42.36 29.72 41.96 29.39 41.47 29.39C41.01 29.39 40.62 29.71 40.59 30.13L40.42 30.13C40.47 29.95 40.5 29.78 40.5 29.58C40.5 28.56 39.63 27.69 38.63 27.69C37.72 27.69 36.93 28.39 36.79 29.3L36.77 29.3C36.28 29.22 34.75 29 34.23 28.61C33.9 28.36 33.74 28.24 33.67 28.17L34.02 27.51L35.3 24.97L30.83 33.01L29.08 36.39L26.26 41.54L26.21 41.54L27.45 27.13L27.53 26.08L27.76 23.32L29.15 22.44L29.03 22.3L27.78 23.08L28.01 20.37L35.21 24.71L28.05 20.14L25.98 8.07L28.71 13.03L30.04 15.55L31.66 18.77L34.79 23.91L31.71 18.5L30.13 15.27L25.73 6.98L23.28 11.01L22.58 9.33L22.16 8.21L21.3 6.24L20.44 4.56L19.88 3.5L19.02 1.91L18.04 0.28L16.8 -1.65L15.83 -2.97L14.89 -4.22L13.85 -5.48L12.53 -6.97L10.69 -8.68L9.1 -10.09L7.47 -11.45L6.17 -12.48L5.09 -13.29L4.48 -13.72L3.65 -14.15L4.04 -14.25L19.16 -14.21C19.21 -10.94 21.68 -8.29 24.73 -8.29C27.78 -8.29 30.25 -10.92 30.3 -14.18L32.32 -14.18L47.04 -14.07C47 -14.05 46.95 -14.01 46.9 -13.98C45.08 -12.72 43.22 -10.92 41.31 -9.39C40.56 -8.72 39.8 -7.97 39.05 -7.29C37.73 -5.83 36.58 -4.67 35 -2.85C29.66 4.54 29.17 6.5 27.83 10.79C27.8 10.92 28.12 11.04 28.13 10.96C30.9 2.39 34.53 -2 40.43 -8.2C41.08 -8.75 41.71 -9.46 42.36 -10C42.96 -10.5 43.55 -10.97 44.15 -11.47C44.53 -11.77 46.32 -13.31 47.13 -13.84C47.25 -13.93 47.32 -13.97 47.35 -14L47.35 -10.13L46.83 -6.61C46.69 -5.85 46.53 -5.09 46.39 -4.33C46.2 -3.5 46.02 -2.67 45.83 -1.84C45.22 -0.16 44.58 1.5 43.97 3.18C43.32 4.45 42.66 5.75 42.01 7.01C41.41 7.93 40.82 8.85 40.24 9.77C39.49 10.79 38.72 11.84 37.96 12.86C37.16 13.78 36.35 14.72 35.56 15.64C34.88 16.31 34.19 16.98 33.5 17.65C33.07 18.03 32.62 18.42 32.17 18.83L32.16 18.84ZM30.87 43.6C28.69 38.81 28.76 37.41 28.76 37.41L30.8 33.33L32.57 30.07L33.46 28.39C33.55 28.52 33.83 28.77 34.76 29.09C35.75 29.42 36.44 29.51 36.7 29.53C36.7 30.55 37.58 31.39 38.58 31.39C38.89 31.39 39.21 31.29 39.47 31.15L39.56 31.6C39.56 31.6 39.57 33.24 39.77 34.48C39.96 35.7 40.63 36.34 41.19 36.86L41.21 36.88C41.76 37.42 43.18 38.82 43.6 39.3C44.03 39.78 44.1 40.01 44.1 40.01C44.1 40.01 44.48 41 44.6 42.59C44.67 43.7 44.44 44.14 44.29 44.34C44.2 44.32 44.13 44.3 44.04 44.3C43.73 44.3 43.41 44.46 43.17 44.71L41.89 41.93L40.5 39.35L38.89 37.06L36.39 33.81L34.56 31.85L32.79 29.99L32.65 30.32L33.71 31.42L36.03 34.09L38.01 36.54L39.82 39.02L41.05 41.21C41.05 41.21 42.55 44.06 42.57 44.21C42.59 44.34 42.78 44.83 42.89 45.1C42.78 45.31 42.71 45.54 42.71 45.75C42.71 46.42 43.17 47.07 43.94 47.14C43.94 47.14 45.81 51.21 46.76 56.83C47.14 59.09 47.32 60.33 47.39 61L47.39 61.75L47.39 62.64C46.41 62.1 43.85 60.58 41.8 58.93C39.21 56.85 38.1 55.68 36.91 54.2C36.32 53.46 35.16 51.93 34.04 49.92C33.02 48.08 31.9 45.88 30.87 43.6ZM47.06 63.28L47.16 63.55L32.34 63.64C31.67 61 29.24 59.06 26.31 59.06C23.35 59.06 20.86 61.07 20.25 63.76L3.58 63.96L3.44 63.9C3.77 63.69 6.63 61.9 10.1 58.58C12.78 56.02 15.48 53.32 17.46 50.7C18.19 49.73 18.76 48.75 19.3 47.8C21.26 44.32 22.01 42.6 22.44 41.39C22.79 40.35 23.21 38.33 23.33 37.73L23.49 37.97L25.68 41.54L26.14 42.17C26.22 42.17 27.53 39.83 27.53 39.83L28.34 38.22C28.34 38.22 29.15 40.77 29.25 41.03C29.37 41.3 30.15 43.05 30.15 43.05C30.15 43.05 31.32 45.77 32.14 47.31C33.16 49.21 34.67 51.92 35.88 53.56C36.44 54.32 37.08 55 37.75 55.81C40.14 58.65 47.06 63.28 47.06 63.28ZM16.87 31.33C17.74 30.53 18.25 30.25 18.46 30.14L19.12 31.19L20.35 33.08L22.16 35.91L23.07 37.3C23 37.76 22.77 39.07 22.59 39.67C22.39 40.39 21.53 42.64 21.53 42.64C21.53 42.64 19.69 46.64 18.51 48.53C17.34 50.42 14.89 53.32 14.71 53.49C14.53 53.67 12.06 56.32 11.98 56.44C11.89 56.57 5.07 62.91 3.21 63.81L2.62 63.58L2.62 62.82L3.14 59.06C3.14 59.06 3.69 55.89 4.12 53.61C4.56 51.33 4.62 52 5.17 49.76C5.28 49.32 5.49 48.82 5.74 48.26C6.39 46.69 7.46 44.65 8.58 42.34C8.92 41.6 9.56 40.6 9.98 39.92C11.33 37.76 12.76 36.05 13.71 34.79C14.99 33.11 16.09 32.02 16.87 31.33ZM4.95 49.69C3.65 53.78 2.86 58.16 2.62 60.29L2.65 30.82C3.18 30.8 5.09 30.77 7.54 30.53C10.45 30.27 12.73 29.86 14.53 29.42C15.9 29.09 16.95 28.63 17.39 28.43L18.23 29.78C18.11 29.9 17.88 30.1 17.5 30.43C17.32 30.59 17.04 30.84 16.78 31.08C16.37 31.49 15.92 31.85 15.55 32.21C15.18 32.57 14.89 32.94 14.51 33.38C13.45 34.64 12.01 36.37 10.73 38.24C9.38 40.22 8.21 42.34 7.23 44.21C6.42 45.77 5.58 47.7 4.95 49.69ZM39.85 32.42C39.85 31.51 39.89 31.05 39.92 30.85C40.07 30.69 40.19 30.53 40.26 30.34L40.54 30.34C40.62 30.73 40.98 31.01 41.41 31.01C41.75 31.01 42.03 30.84 42.19 30.59C42.38 30.69 43.06 31.01 44.31 31.07C45.48 31.14 46.88 31.1 47.39 31.08L47.39 59.09C47.23 57.89 46.88 55.47 46.44 53.72C45.83 51.28 45.16 49.53 45.16 49.53L44.39 47.17C45.06 47 45.46 46.4 45.46 45.78C45.46 45.42 45.29 45.04 45.01 44.76C44.99 44.48 44.97 43.96 44.96 43.7C44.94 43.32 44.73 41.67 44.64 41.07C44.51 40.22 44.51 40.25 44.24 39.69C44.03 39.25 42.69 37.96 42.69 37.96C42.69 37.96 42.19 37.42 41.38 36.71C40.57 35.98 40.35 35.43 40.19 35.04C40.01 34.65 39.87 33.77 39.85 32.42ZM30.44 63.65L32 63.64C31.35 61.17 29.04 59.35 26.29 59.38C23.49 59.38 21.16 61.25 20.55 63.78L30.44 63.65ZM25.33 21L25.19 15.96L25.38 15.87L25.54 20.87L27.82 20.09L25.71 7.71L25.64 7.64L25.54 7.82L25.05 12.25L24.91 12.17L25.38 8.07L23.59 11.04L19.04 18.52L16.8 22.27L15.43 24.39L21.6 22.27L20.77 21.67L20.91 21.54L21.84 22.19L25.33 21ZM25.43 24.44L25.33 21.14L22.03 22.32L25 24.4L25.43 24.44ZM25.66 32.13L25.45 24.93L25.26 24.86L21.74 27.35L21.68 27.23L25 24.75L21.77 22.41L15.43 24.68L16.51 25.21L16.44 25.35L15.41 24.85L17.6 28.36L18.41 29.65L19.81 31.89L21.53 34.55L26.01 41.54L27.22 27.23L27.31 26.17L25.71 25.06L25.92 31.79L25.66 32.13ZM25.69 24.72L25.69 24.79L27.31 25.94L27.52 23.49L25.83 24.54L25.69 24.72ZM25.57 21.04L25.68 24.4L27.53 23.22L27.78 20.32L25.57 21.04ZM27.85 20.32L27.91 20.32L27.89 20.3L27.85 20.32ZM12.1 15.9C12.69 16.68 12.99 17.64 13.08 18C12.38 18.11 11.71 18.63 11.54 19.32C11.38 19.3 11.15 19.26 11.07 19.25L11.07 19.22C11.07 18.66 10.61 18.2 10.12 18.2C9.71 18.2 9.28 18.52 9.16 18.96C8.91 18.94 7.72 18.85 6.89 18.82C6.1 18.78 3.37 18.89 2.65 18.92L2.69 -11.38L3.58 -6.52L4.49 -2.78L4.9 -1.43L5.51 0.05C4.95 0.28 4.51 0.85 4.51 1.48C4.51 2.14 4.97 2.68 5.56 2.88C5.49 3.3 5.26 4.93 5.41 6.13C5.56 7.51 5.63 7.65 5.96 8.9C6.3 10.14 7.39 11.52 8.52 12.39C9.66 13.25 11.34 14.89 12.1 15.9ZM5.72 3.59C5.79 3.32 5.86 3.09 5.93 2.93C5.96 2.95 6.02 2.95 6.05 2.93C6.14 2.93 6.23 2.93 6.32 2.92L7.51 5.69L8.87 8.46L10.59 11.28L12.01 13.31L14.18 15.89L16.76 18.45L18.06 19.6L17.23 20.92C17.14 20.89 17.02 20.83 16.78 20.76C16.2 20.57 15.76 20.5 15.18 20.46L14.76 20.45C14.92 20.2 15.01 19.92 15.01 19.63C15.01 18.8 14.32 18.11 13.53 17.99C13.53 17.99 13.43 17.42 12.82 16.47C12.2 15.53 11.73 14.99 11.29 14.53C10.85 14.07 10.03 13.24 9.57 12.9C9.12 12.57 7.87 11.64 6.93 10.39C5.98 9.15 5.88 7.81 5.63 6.8C5.39 5.79 5.62 4.11 5.72 3.59ZM2.67 19.51L2.65 30.34C2.9 30.38 3.42 30.39 4.53 30.38C6.61 30.36 8.31 30.17 8.31 30.17C8.31 30.17 10.64 29.88 11.99 29.64C13.34 29.39 17.2 28.25 17.2 28.25L17.28 28.28L16.23 26.6L14.99 24.5L16.9 21.49L17 21.31C16.95 21.26 16.87 21.21 16.76 21.15C16.5 21.01 15.97 20.89 15.46 20.83C15.09 20.78 14.71 20.76 14.53 20.75C14.2 21.08 13.73 21.31 13.25 21.31C12.38 21.31 11.5 20.55 11.5 19.63L11.5 19.6L11.01 19.54C10.87 19.95 10.49 20.25 10.1 20.25C9.64 20.25 9.21 19.85 9.14 19.33C8.92 19.3 8.12 19.17 5.77 19.17C5 19.17 3.18 19.44 2.67 19.51ZM-15.31 27.27L-16.61 28.18L-16.2 28.85L-14.8 27.51L-14.66 25.42L-12.93 26.67L-11.26 25.07L-10.93 24.23L-13.07 25.73L-15.4 24.25L-15.31 27.27ZM-14.36 29.37L-15.96 29.33L-14.13 32.6L-13.68 33.07L-12.24 30.31L-9.28 29.83L-9.3 29.71L-10.89 27.46L-10.82 27.17L-9.83 24.17L-11.09 25.67L-11.67 27.76L-10.44 29.3L-12.5 29.46L-13.66 31.54L-14.36 29.37ZM-12.07 30.62L-13.65 33.47C-13.65 33.47 1.37 60.35 1.37 60.32L1.62 11.29L0.46 12.58L-1.45 15L-3.52 17.53L-5.93 20.09L-9.44 23.73L-10.49 27.3L-8.6 29.95L-12.07 30.62ZM-0.4 12.76L1.62 9.75L1.67 -0.41C1.5 0.19 1.25 1.07 0.87 2.37C-0.27 6.22 -3.48 12.85 -4.43 14.47C-5.39 16.1 -6.3 16.89 -6.3 16.89C-6.3 16.89 -5.95 15.87 -5.76 15.51C-5.67 15.35 -5.13 13.5 -4.69 11.46C-4.2 9.21 -3.69 6.73 -3.64 6.03C-3.53 4.64 -3.06 -1.77 -3.06 -1.77L-5.36 2.37L-5.29 4.64L-5.39 7.9L-5.84 11.82L-6.37 13.87L-7.07 16.11L-8.75 20.14L-9.59 21.93L-10.38 23.92L-10.72 24.67L-10.59 24.58L-8.49 22.03L-7.32 20.78L-4.44 17.72L-2.4 15.28L-0.4 12.76ZM-5.97 3.76L-6.06 3.64L-18.15 25.42L-16.76 27.9L-15.63 27.06L-15.73 23.73L-12.98 25.07L-10.7 23.64L-9.54 21.1L-8.09 17.44L-7.28 14.88L-6.55 11.98L-6.06 8.66L-5.92 5.89L-5.97 3.76ZM-14.4 27.75L-15.83 28.95L-14.12 29.05L-13.59 30.82L-12.84 29.1L-11.21 29.03L-12.17 27.78L-11.45 25.92L-13.05 27.07L-14.36 26L-14.4 27.75ZM45.11 45.78C45.11 45.11 44.51 44.76 44.06 44.75C43.6 44.73 42.99 45.11 42.99 45.78C42.99 46.46 43.39 46.88 44.06 46.88C44.73 46.88 45.11 46.46 45.11 45.78ZM0.32 0.76C0.43 0.39 1.3 -2.58 1.69 -3.93L1.74 -10.5L-2.08 -3.52C-2.11 -2.65 -2.17 -1.17 -2.09 -0.83C-2.01 -0.36 -2.71 5.9 -3.02 7.28C-3.34 8.64 -3.92 11.71 -3.92 11.71C-3.92 11.71 -3.86 11.75 -3.45 11.11C-3.04 10.48 0.2 1.24 0.32 0.76ZM10.91 19.22C10.91 18.67 10.61 18.36 10.14 18.36C9.66 18.36 9.33 18.67 9.33 19.22C9.33 19.75 9.66 20.09 10.14 20.09C10.61 20.09 10.91 19.75 10.91 19.22ZM14.73 19.63C14.73 18.77 14.17 18.25 13.32 18.25C12.47 18.25 11.87 18.78 11.87 19.63C11.87 20.52 12.48 21.04 13.32 21.04C14.18 21.04 14.73 20.5 14.73 19.63ZM16.93 18.04L18.28 19.25L20.49 15.69L23.05 11.49L21.65 7.92L20.49 5.37L19.62 3.66L18.55 1.82L16.76 -0.96L16.04 -2L14.9 -3.62L13.94 -4.77L12.64 -6.18L10.66 -8.15L9.4 -9.29L8.49 -10.13L7.19 -11.25L5.91 -12.33L4.67 -13.25L3.23 -14.08L2.93 -14L2.85 -12.08L3.91 -6.22L4.51 -3.94L5.37 -1.45L5.79 -0.04C5.88 -0.05 5.98 -0.08 6.07 -0.08C6.87 -0.08 7.63 0.65 7.63 1.46C7.63 2.08 7.21 2.6 6.65 2.82L6.87 3.57L8.72 7.4L10.19 10.16L12.47 13.25L14.87 16.03L16.93 18.04ZM30.06 -14.22L19.46 -14.25C19.49 -11.14 21.86 -8.62 24.77 -8.65C27.66 -8.65 30.01 -11.14 30.06 -14.22ZM62.06 23.46L62.08 23.43L61.42 23.94L61.67 21.28L60.04 19.61L62.74 19.22L63.76 17L65.56 20.25L64.84 20.2L63.98 18.57L63.11 20.13L61.27 20.3L62.57 21.4L62.3 23.08L62.08 23.43L62.13 23.39L62.06 23.46ZM65.03 21.57L65.95 20.96L66.51 21.96L65.68 22.1L65.67 24.93L63.67 23.46L61.6 24.57L61.88 24.07L63.62 22.6L65.03 23.57L65.03 21.57ZM63.6 22.27L62.41 23.18L62.5 23.1L62.88 21.31L61.85 20.48L63.26 20.53L63.95 19.12L64.62 20.52L65.58 20.64L64.81 21.43L64.81 23.11L63.6 22.27ZM58.41 31.4C59.25 29.57 60.78 26.26 61.23 25.28C61.35 25.02 63.62 23.85 63.62 23.87L65.96 25.48L66.09 22.44L66.77 22.41L68.19 24.97L56.12 46.09C56.07 45.75 56.03 45.25 56.05 44.5C56.07 42.75 56.61 37.57 56.96 36.39C57.31 35.2 57.43 33.57 58.41 31.4ZM62.55 18.85L63.46 16.43L48.3 -11.01L48.48 38.96C48.84 38.47 49.49 37.57 50.44 36.07C51.94 33.63 57.47 28.04 57.47 28.04L60.87 24.64L61.15 21.43L59.48 19.33L62.55 18.85ZM53.91 32.9C51.77 35.27 49.12 39.6 48.46 40.71L48.46 46.85L53.56 36.99C54.82 34.39 56.14 32.73 57.1 31.81C57.1 31.81 54.91 38.61 54.03 41.93C53.16 45.25 53.37 47.31 53.24 49.83C53.23 50.45 53.23 50.85 53.24 51.1L55.31 47.46C55.35 46.26 55.43 43.67 55.57 41.4C55.76 38.38 57.06 33.45 57.92 30.96C58.78 28.46 60.15 26.29 60.15 26.29C60.15 26.29 56.38 30.14 53.91 32.9ZM53.28 42.06C53.84 39.67 55.66 34.48 55.66 34.48C54.94 35.75 51.25 41.26 49.48 47.45C48.64 50.36 48.5 50.77 48.5 50.77L48.53 59.35L52.51 52.38C52.37 49.69 52.72 44.39 53.28 42.06ZM7.39 1.46C7.39 0.69 6.82 0.17 6.05 0.17C5.26 0.17 4.77 0.71 4.77 1.46C4.77 2.22 5.28 2.71 6.05 2.71C6.82 2.71 7.39 2.25 7.39 1.46ZM42.13 30.18C42.13 29.74 41.89 29.58 41.41 29.58C40.96 29.58 40.73 29.74 40.73 30.18C40.73 30.62 40.94 30.8 41.41 30.8C41.89 30.8 42.13 30.62 42.13 30.18ZM40.22 29.54C40.22 28.57 39.54 27.92 38.59 27.92C37.65 27.92 36.94 28.57 36.96 29.54C36.96 30.52 37.65 31.14 38.59 31.14C39.54 31.14 40.22 30.52 40.22 29.54Z" fill="#8E35FF" fill-opacity="1.000000" fill-rule="evenodd"/>
		<path id="path4" d="M32.17 18.83C32.16 18.83 32.16 18.84 32.16 18.84C32.2 18.98 32.25 19.14 32.28 19.28C32.78 18.85 33.28 18.45 33.77 18.03L36.39 15.44M33.77 18.03C34.65 17.16 35.51 16.31 36.39 15.44C37.1 14.58 37.84 13.73 38.56 12.86C39.07 12.19 39.57 11.5 40.1 10.83C40.73 9.89 41.34 8.96 41.98 8.02C42.5 7.1 43.01 6.17 43.53 5.25C43.97 4.28 44.39 3.28 44.83 2.32C45.13 1.46 45.44 0.62 45.74 -0.25C45.99 -1.24 46.23 -2.23 46.48 -3.22M45.74 -0.25L46.48 -3.22C46.71 -4.47 46.95 -5.72 47.18 -6.97L47.41 -9.53L47.41 18.63L42.52 18.82L39.89 19.19L37.54 19.68L35.79 20.11L33.84 20.71L33.48 20.92L33.42 21.17L33.74 21.17L34.35 20.92L35.32 20.66L36.89 20.23C36.89 20.23 38.33 19.88 38.38 19.88C38.44 19.88 39.84 19.54 39.84 19.54L41.31 19.28C41.75 19.21 42.17 19.08 42.62 19.08L47.44 18.96L47.44 30.8C47.44 30.8 46.5 30.91 45.85 30.92C45.18 30.94 44.1 30.87 43.69 30.82C43.06 30.73 42.52 30.48 42.34 30.39C42.36 30.34 42.36 30.27 42.36 30.2C42.36 29.72 41.96 29.39 41.47 29.39C41.01 29.39 40.62 29.71 40.59 30.13L40.42 30.13C40.47 29.95 40.5 29.78 40.5 29.58C40.5 28.56 39.63 27.69 38.63 27.69C37.72 27.69 36.93 28.39 36.79 29.3C36.78 29.3 36.78 29.3 36.77 29.3M36.79 29.3L36.77 29.3C36.28 29.22 34.75 29 34.23 28.61C33.9 28.36 33.74 28.24 33.67 28.17L34.02 27.51L35.3 24.97L35.21 24.71L34.79 23.91L31.71 18.5L30.13 15.27L25.73 6.98L23.28 11.01L22.58 9.33L22.16 8.21L21.3 6.24L20.44 4.56L19.88 3.5L19.02 1.91L18.04 0.28L16.8 -1.65L15.83 -2.97L14.89 -4.22L13.85 -5.48L12.53 -6.97L10.69 -8.68L9.1 -10.09L7.47 -11.45L6.17 -12.48L5.09 -13.29L4.48 -13.72L3.65 -14.15L4.04 -14.25L19.16 -14.21C19.21 -10.94 21.68 -8.29 24.73 -8.29C27.78 -8.29 30.25 -10.92 30.3 -14.18L32.32 -14.18L47.04 -14.07C47 -14.05 46.95 -14.01 46.9 -13.98C45.08 -12.72 43.22 -10.92 41.31 -9.39C40.56 -8.72 39.8 -7.97 39.05 -7.29C37.73 -5.83 36.58 -4.67 35 -2.85C29.66 4.54 29.17 6.5 27.83 10.79C27.8 10.92 28.12 11.04 28.13 10.96C30.9 2.39 34.53 -2 40.43 -8.2C41.08 -8.75 41.71 -9.46 42.36 -10C42.96 -10.5 43.55 -10.97 44.15 -11.47C44.53 -11.77 46.32 -13.31 47.13 -13.84C47.25 -13.93 47.32 -13.97 47.35 -14L47.35 -10.13L46.83 -6.61C46.69 -5.85 46.53 -5.09 46.39 -4.33C46.2 -3.5 46.02 -2.67 45.83 -1.84C45.22 -0.16 44.58 1.5 43.97 3.18C43.32 4.45 42.66 5.75 42.01 7.01C41.41 7.93 40.82 8.85 40.24 9.77C39.49 10.79 38.72 11.84 37.96 12.86C37.16 13.78 36.35 14.72 35.56 15.64C34.88 16.31 34.19 16.98 33.5 17.65C33.07 18.03 32.62 18.42 32.17 18.83L32.16 18.84M41.21 36.88L41.19 36.86C40.63 36.34 39.96 35.7 39.77 34.48C39.57 33.24 39.56 31.6 39.56 31.6L39.47 31.15C39.21 31.29 38.89 31.39 38.58 31.39C37.58 31.39 36.7 30.55 36.7 29.53C36.44 29.51 35.75 29.42 34.76 29.09C33.83 28.77 33.55 28.52 33.46 28.39L32.57 30.07L30.8 33.33L28.76 37.41C28.76 37.41 28.69 38.81 30.87 43.6C31.9 45.88 33.02 48.08 34.04 49.92C35.16 51.93 36.32 53.46 36.91 54.2C38.1 55.68 39.21 56.85 41.8 58.93C43.85 60.58 46.41 62.1 47.39 62.64L47.39 61.75L47.39 61C47.32 60.33 47.14 59.09 46.76 56.83C45.81 51.21 43.94 47.14 43.94 47.14C43.17 47.07 42.71 46.42 42.71 45.75C42.71 45.54 42.78 45.31 42.89 45.1C42.78 44.83 42.59 44.34 42.57 44.21C42.55 44.06 41.05 41.21 41.05 41.21L39.82 39.02L38.01 36.54L36.03 34.09L33.71 31.42L32.65 30.32L32.79 29.99L34.56 31.85L36.39 33.81L38.89 37.06L40.5 39.35L41.89 41.93L43.17 44.71C43.41 44.46 43.73 44.3 44.04 44.3C44.13 44.3 44.2 44.32 44.29 44.34C44.44 44.14 44.67 43.7 44.6 42.59C44.48 41 44.1 40.01 44.1 40.01C44.1 40.01 44.03 39.78 43.6 39.3C43.18 38.82 41.76 37.42 41.21 36.88C41.2 36.88 41.19 36.87 41.19 36.86M47.06 63.28C47.06 63.28 40.14 58.65 37.75 55.81C37.08 55 36.44 54.32 35.88 53.56C34.67 51.92 33.16 49.21 32.14 47.31C31.32 45.77 30.15 43.05 30.15 43.05C30.15 43.05 29.37 41.3 29.25 41.03C29.15 40.77 28.34 38.22 28.34 38.22L27.53 39.83C27.53 39.83 26.22 42.17 26.14 42.17L25.68 41.54L23.49 37.97L23.33 37.73C23.21 38.33 22.79 40.35 22.44 41.39C22.01 42.6 21.26 44.32 19.3 47.8C18.76 48.75 18.19 49.73 17.46 50.7C15.48 53.32 12.78 56.02 10.1 58.58C6.63 61.9 3.77 63.69 3.44 63.9L3.58 63.96L20.25 63.76C20.86 61.07 23.35 59.06 26.31 59.06C29.24 59.06 31.67 61 32.34 63.64L47.16 63.55L47.06 63.28ZM16.87 31.33C16.09 32.02 14.99 33.11 13.71 34.79C12.76 36.05 11.33 37.76 9.98 39.92C9.56 40.6 8.92 41.6 8.58 42.34C7.46 44.65 6.39 46.69 5.74 48.26C5.49 48.82 5.28 49.32 5.17 49.76C4.62 52 4.56 51.33 4.12 53.61C3.69 55.89 3.14 59.06 3.14 59.06L2.62 62.82L2.62 63.58L3.21 63.81C5.07 62.91 11.89 56.57 11.98 56.44C12.06 56.32 14.53 53.67 14.71 53.49C14.89 53.32 17.34 50.42 18.51 48.53C19.69 46.64 21.53 42.64 21.53 42.64C21.53 42.64 22.39 40.39 22.59 39.67C22.77 39.07 23 37.76 23.07 37.3L22.16 35.91L20.35 33.08L19.12 31.19L18.46 30.14C18.25 30.25 17.74 30.53 16.87 31.33ZM4.95 49.69C5.58 47.7 6.42 45.77 7.23 44.21C8.21 42.34 9.38 40.22 10.73 38.24C12.01 36.37 13.45 34.64 14.51 33.38C14.89 32.94 15.18 32.57 15.55 32.21C15.92 31.85 16.37 31.49 16.78 31.08C17.04 30.84 17.32 30.59 17.5 30.43C17.88 30.1 18.11 29.9 18.23 29.78L17.39 28.43C16.95 28.63 15.9 29.09 14.53 29.42C12.73 29.86 10.45 30.27 7.54 30.53C5.09 30.77 3.18 30.8 2.65 30.82L2.62 60.29C2.86 58.16 3.65 53.78 4.95 49.69ZM39.85 32.42C39.87 33.77 40.01 34.65 40.19 35.04C40.35 35.43 40.57 35.98 41.38 36.71C42.19 37.42 42.69 37.96 42.69 37.96C42.69 37.96 44.03 39.25 44.24 39.69C44.51 40.25 44.51 40.22 44.64 41.07C44.73 41.67 44.94 43.32 44.96 43.7C44.97 43.96 44.99 44.48 45.01 44.76C45.29 45.04 45.46 45.42 45.46 45.78C45.46 46.4 45.06 47 44.39 47.17L45.16 49.53C45.16 49.53 45.83 51.28 46.44 53.72C46.88 55.47 47.23 57.89 47.39 59.09L47.39 31.08C46.88 31.1 45.48 31.14 44.31 31.07C43.06 31.01 42.38 30.69 42.19 30.59C42.03 30.84 41.75 31.01 41.41 31.01C40.98 31.01 40.62 30.73 40.54 30.34L40.26 30.34C40.19 30.53 40.07 30.69 39.92 30.85C39.89 31.05 39.85 31.51 39.85 32.42ZM47.55 63.96L47.79 63.83L48.33 62.57L70 24.72L47.42 -14.19C47.46 -14.3 47.28 -14.46 47.28 -14.46L46.46 -15L25.5 -15L3.84 -14.97L2.72 -14.4L2.69 -14.4L-20 25.04L2.6 64.52L3.88 65L46.2 64.59L47.39 64.03L47.55 63.96ZM30.44 63.65L20.55 63.78C21.16 61.25 23.49 59.38 26.29 59.38C29.04 59.35 31.35 61.17 32 63.64L30.44 63.65ZM25.33 21L21.84 22.19L20.91 21.54L20.77 21.67L21.6 22.27L15.43 24.39L16.8 22.27L19.04 18.52L23.59 11.04L25.38 8.07L24.91 12.17L25.05 12.25L25.54 7.82L25.64 7.64L25.71 7.71L27.82 20.09L25.54 20.87L25.38 15.87L25.19 15.96L25.33 21ZM25.43 24.44L25 24.4L22.03 22.32L25.33 21.14L25.43 24.44ZM25.66 32.13L25.92 31.79L25.71 25.06L27.31 26.17L27.22 27.23L26.01 41.54L21.53 34.55L19.81 31.89L18.41 29.65L17.6 28.36L15.41 24.85L16.44 25.35L16.51 25.21L15.43 24.68L21.77 22.41L25 24.75L21.68 27.23L21.74 27.35L25.26 24.86L25.45 24.93L25.66 32.13ZM25.69 24.72L25.83 24.54L27.52 23.49L27.31 25.94L25.69 24.79L25.69 24.72ZM25.57 21.04L27.78 20.32L27.53 23.22L25.68 24.4L25.57 21.04ZM25.57 40.56L25.78 40.75L25.05 37.35L24.85 37.35L25.57 40.56ZM35.3 24.97L30.83 33.01L29.08 36.39L26.26 41.54L26.21 41.54L27.45 27.13L27.53 26.08L27.76 23.32L29.15 22.44L29.03 22.3L27.78 23.08L28.01 20.37L35.21 24.71M27.85 20.32L27.89 20.3L27.91 20.32L27.85 20.32ZM12.1 15.9C11.34 14.89 9.66 13.25 8.52 12.39C7.39 11.52 6.3 10.14 5.96 8.9C5.63 7.65 5.56 7.51 5.41 6.13C5.26 4.93 5.49 3.3 5.56 2.88C4.97 2.68 4.51 2.14 4.51 1.48C4.51 0.85 4.95 0.28 5.51 0.05L4.9 -1.43L4.49 -2.78L3.58 -6.52L2.69 -11.38L2.65 18.92C3.37 18.89 6.1 18.78 6.89 18.82C7.72 18.85 8.91 18.94 9.16 18.96C9.28 18.52 9.71 18.2 10.12 18.2C10.61 18.2 11.07 18.66 11.07 19.22L11.07 19.25C11.15 19.26 11.38 19.3 11.54 19.32C11.71 18.63 12.38 18.11 13.08 18C12.99 17.64 12.69 16.68 12.1 15.9ZM5.72 3.59C5.62 4.11 5.39 5.79 5.63 6.8C5.88 7.81 5.98 9.15 6.93 10.39C7.87 11.64 9.12 12.57 9.57 12.9C10.03 13.24 10.85 14.07 11.29 14.53C11.73 14.99 12.2 15.53 12.82 16.47C13.43 17.42 13.53 17.99 13.53 17.99C14.32 18.11 15.01 18.8 15.01 19.63C15.01 19.92 14.92 20.2 14.76 20.45L15.18 20.46C15.76 20.5 16.2 20.57 16.78 20.76C17.02 20.83 17.14 20.89 17.23 20.92L18.06 19.6L16.76 18.45L14.18 15.89L12.01 13.31L10.59 11.28L8.87 8.46L7.51 5.69L6.32 2.92C6.23 2.93 6.14 2.93 6.05 2.93C6.02 2.95 5.96 2.95 5.93 2.93C5.86 3.09 5.79 3.32 5.72 3.59ZM2.67 19.51C3.18 19.44 5 19.17 5.77 19.17C8.12 19.17 8.92 19.3 9.14 19.33C9.21 19.85 9.64 20.25 10.1 20.25C10.49 20.25 10.87 19.95 11.01 19.54L11.5 19.6C11.5 19.61 11.5 19.61 11.5 19.63C11.5 20.55 12.38 21.31 13.25 21.31C13.73 21.31 14.2 21.08 14.53 20.75C14.71 20.76 15.09 20.78 15.46 20.83C15.97 20.89 16.5 21.01 16.76 21.15C16.87 21.21 16.95 21.26 17 21.31L16.9 21.49L14.99 24.5L16.23 26.6L17.28 28.28L17.2 28.25C17.2 28.25 13.34 29.39 11.99 29.64C10.64 29.88 8.31 30.17 8.31 30.17C8.31 30.17 6.61 30.36 4.53 30.38C3.42 30.39 2.9 30.38 2.65 30.34L2.67 19.51ZM-15.31 27.27L-15.4 24.25L-13.07 25.73L-10.93 24.23L-11.26 25.07L-12.93 26.67L-14.66 25.42L-14.8 27.51L-16.2 28.85L-16.61 28.18L-15.31 27.27ZM-14.36 29.37L-13.66 31.54L-12.5 29.46L-10.44 29.3L-11.67 27.76L-11.09 25.67L-9.83 24.17L-10.82 27.17L-10.89 27.46L-9.3 29.71L-9.28 29.83L-12.24 30.31L-13.68 33.07L-14.13 32.6L-15.96 29.33L-14.36 29.37ZM-13.68 33.07C-13.84 32.9 -13.99 32.75 -14.13 32.6M-12.07 30.62L-8.6 29.95L-10.49 27.3L-9.44 23.73L-5.93 20.09L-3.52 17.53L-1.45 15L0.46 12.58L1.62 11.29L1.37 60.32C1.37 60.35 -13.65 33.47 -13.65 33.47L-12.07 30.62ZM-0.4 12.76L-2.4 15.28L-4.44 17.72L-7.32 20.78L-8.49 22.03L-10.59 24.58L-10.72 24.67L-10.38 23.92L-9.59 21.93L-8.75 20.14L-7.07 16.11L-6.37 13.87L-5.84 11.82L-5.39 7.9L-5.29 4.64L-5.36 2.37L-3.06 -1.77C-3.06 -1.77 -3.53 4.64 -3.64 6.03C-3.69 6.73 -4.2 9.21 -4.69 11.46C-5.13 13.5 -5.67 15.35 -5.76 15.51C-5.95 15.87 -6.3 16.89 -6.3 16.89C-6.3 16.89 -5.39 16.1 -4.43 14.47C-3.48 12.85 -0.27 6.22 0.87 2.37C1.25 1.07 1.5 0.19 1.67 -0.41L1.62 9.75L-0.4 12.76ZM-5.97 3.76L-5.92 5.89L-6.06 8.66L-6.55 11.98L-7.28 14.88L-8.09 17.44L-9.54 21.1L-10.7 23.64L-12.98 25.07L-15.73 23.73L-15.63 27.06L-16.76 27.9L-18.15 25.42L-6.06 3.64L-5.97 3.76ZM-14.4 27.75L-14.36 26L-13.05 27.07L-11.45 25.92L-12.17 27.78L-11.21 29.03L-12.84 29.1L-13.59 30.82L-14.12 29.05L-15.83 28.95L-14.4 27.75ZM45.11 45.78C45.11 46.46 44.73 46.88 44.06 46.88C43.39 46.88 42.99 46.46 42.99 45.78C42.99 45.11 43.6 44.73 44.06 44.75C44.51 44.76 45.11 45.11 45.11 45.78ZM0.32 0.76C0.2 1.24 -3.04 10.48 -3.45 11.11C-3.86 11.75 -3.92 11.71 -3.92 11.71C-3.92 11.71 -3.34 8.64 -3.02 7.28C-2.71 5.9 -2.01 -0.36 -2.09 -0.83C-2.17 -1.17 -2.11 -2.65 -2.08 -3.52L1.74 -10.5L1.69 -3.93C1.3 -2.58 0.43 0.39 0.32 0.76ZM10.91 19.22C10.91 19.75 10.61 20.09 10.14 20.09C9.66 20.09 9.33 19.75 9.33 19.22C9.33 18.67 9.66 18.36 10.14 18.36C10.61 18.36 10.91 18.67 10.91 19.22ZM14.73 19.63C14.73 20.5 14.18 21.04 13.32 21.04C12.48 21.04 11.87 20.52 11.87 19.63C11.87 18.78 12.47 18.25 13.32 18.25C14.17 18.25 14.73 18.77 14.73 19.63ZM34.79 23.91L31.66 18.77L30.04 15.55L28.71 13.03L25.98 8.07L28.05 20.14L35.21 24.71M16.93 18.04L14.87 16.03L12.47 13.25L10.19 10.16L8.72 7.4L6.87 3.57L6.65 2.82C7.21 2.6 7.63 2.08 7.63 1.46C7.63 0.65 6.87 -0.08 6.07 -0.08C5.98 -0.08 5.88 -0.05 5.79 -0.04L5.37 -1.45L4.51 -3.94L3.91 -6.22L2.85 -12.08L2.93 -14L3.23 -14.08L4.67 -13.25L5.91 -12.33L7.19 -11.25L8.49 -10.13L9.4 -9.29L10.66 -8.15L12.64 -6.18L13.94 -4.77L14.9 -3.62L16.04 -2L16.76 -0.96L18.55 1.82L19.62 3.66L20.49 5.37L21.65 7.92L23.05 11.49L20.49 15.69L18.28 19.25L16.93 18.04ZM30.06 -14.22C30.01 -11.14 27.66 -8.65 24.77 -8.65C21.86 -8.62 19.49 -11.14 19.46 -14.25L30.06 -14.22ZM62.08 23.43L62.3 23.08L62.57 21.4L61.27 20.3L63.11 20.13L63.98 18.57L64.84 20.2L65.56 20.25L63.76 17L62.74 19.22L60.04 19.61L61.67 21.28L61.42 23.94L62.08 23.43L62.13 23.39L62.06 23.46L62.08 23.43M65.03 21.57L65.03 23.57L63.62 22.6L61.88 24.07L61.6 24.57L63.67 23.46L65.67 24.93L65.68 22.1L66.51 21.96L65.95 20.96L65.03 21.57ZM63.6 22.27L64.81 23.11L64.81 21.43L65.58 20.64L64.62 20.52L63.95 19.12L63.26 20.53L61.85 20.48L62.88 21.31L62.5 23.1L62.41 23.18L63.6 22.27ZM58.41 31.4C57.43 33.57 57.31 35.2 56.96 36.39C56.61 37.57 56.07 42.75 56.05 44.5C56.03 45.25 56.07 45.75 56.12 46.09L68.19 24.97L66.77 22.41L66.09 22.44L65.96 25.48L63.62 23.87C63.62 23.85 61.35 25.02 61.23 25.28C60.78 26.26 59.25 29.57 58.41 31.4ZM62.55 18.85L59.48 19.33L61.15 21.43L60.87 24.64L57.47 28.04C57.47 28.04 51.94 33.63 50.44 36.07C49.49 37.57 48.84 38.47 48.48 38.96L48.3 -11.01L63.46 16.43L62.55 18.85ZM53.91 32.9C56.38 30.14 60.15 26.29 60.15 26.29C60.15 26.29 58.78 28.46 57.92 30.96C57.06 33.45 55.76 38.38 55.57 41.4C55.43 43.67 55.35 46.26 55.31 47.46L53.24 51.1C53.23 50.85 53.23 50.45 53.24 49.83C53.37 47.31 53.16 45.25 54.03 41.93C54.91 38.61 57.1 31.81 57.1 31.81C56.14 32.73 54.82 34.39 53.56 36.99L48.46 46.85L48.46 40.71C49.12 39.6 51.77 35.27 53.91 32.9ZM53.28 42.06C52.72 44.39 52.37 49.69 52.51 52.38L48.53 59.35L48.5 50.77C48.5 50.77 48.64 50.36 49.48 47.45C51.25 41.26 54.94 35.75 55.66 34.48C55.66 34.48 53.84 39.67 53.28 42.06ZM7.39 1.46C7.39 2.25 6.82 2.71 6.05 2.71C5.28 2.71 4.77 2.22 4.77 1.46C4.77 0.71 5.26 0.17 6.05 0.17C6.82 0.17 7.39 0.69 7.39 1.46ZM42.13 30.18C42.13 30.62 41.89 30.8 41.41 30.8C40.94 30.8 40.73 30.62 40.73 30.18C40.73 29.74 40.96 29.58 41.41 29.58C41.89 29.58 42.13 29.74 42.13 30.18ZM40.22 29.54C40.22 30.52 39.54 31.14 38.59 31.14C37.65 31.14 36.96 30.52 36.96 29.54C36.94 28.57 37.65 27.92 38.59 27.92C39.54 27.92 40.22 28.57 40.22 29.54ZM11.5 19.63L11.5 19.6" stroke="#8E35FF" stroke-opacity="1.000000" stroke-width="0.500000"/>
	</g>
	<g mask="url(#mask5_39957)">
		<path id="Polygon 8" d="M7.34 10.18C4.87 11.61 3.34 14.25 3.34 17.11L3.34 32.88C3.34 35.74 4.87 38.38 7.34 39.81L21 47.68C23.47 49.11 26.52 49.11 29 47.68L42.65 39.81C45.12 38.38 46.65 35.74 46.65 32.88L46.65 17.11C46.65 14.25 45.12 11.61 42.65 10.18L29 2.31C26.52 0.88 23.47 0.88 21 2.31L7.34 10.18ZM8.34 11.92C6.49 12.99 5.34 14.97 5.34 17.11L5.34 32.88C5.34 35.02 6.49 37 8.34 38.07L22 45.96C23.85 47.03 26.14 47.03 28 45.96L41.65 38.07C43.5 37 44.65 35.02 44.65 32.88L44.65 17.11C44.65 14.97 43.5 12.99 41.65 11.92L28 4.03C26.14 2.96 23.85 2.96 22 4.03L8.34 11.92Z" fill="#8E35FF" fill-opacity="1.000000" fill-rule="evenodd"/>
	</g>
</svg>
