<svg width="19.519531" height="19.515625" viewBox="0 0 19.5195 19.5156" fill="none" xmlns="http://www.w3.org/2000/svg" xmlns:xlink="http://www.w3.org/1999/xlink">
	<desc>
			Created with Pixso.
	</desc>
	<defs/>
	<path id="Vector" d="M8.25 1.5C7.36 1.5 6.48 1.67 5.66 2.01C4.84 2.35 4.1 2.85 3.47 3.47C2.85 4.1 2.35 4.84 2.01 5.66C1.67 6.48 1.5 7.35 1.5 8.25C1.5 9.13 1.67 10.01 2.01 10.82C2.35 11.64 2.85 12.39 3.47 13.02C4.1 13.64 4.84 14.14 5.66 14.48C6.48 14.82 7.36 15 8.25 15C10.03 15 11.75 14.28 13.02 13.02C14.28 11.75 15 10.03 15 8.25C15 6.46 14.28 4.74 13.02 3.47C11.75 2.21 10.03 1.5 8.25 1.5ZM0 8.25C0 6.92 0.32 5.61 0.92 4.44C1.54 3.26 2.42 2.25 3.51 1.49C4.59 0.73 5.84 0.25 7.16 0.07C8.47 -0.11 9.81 0.03 11.05 0.49C12.3 0.94 13.42 1.68 14.32 2.66C15.21 3.64 15.86 4.81 16.21 6.09C16.55 7.36 16.59 8.71 16.3 10C16.02 11.3 15.43 12.5 14.58 13.53L19.28 18.21C19.35 18.28 19.41 18.36 19.45 18.46C19.49 18.55 19.51 18.65 19.51 18.75C19.51 18.85 19.5 18.95 19.46 19.04C19.42 19.14 19.37 19.22 19.3 19.29C19.22 19.36 19.14 19.42 19.05 19.46C18.95 19.5 18.85 19.51 18.75 19.51C18.65 19.51 18.55 19.49 18.46 19.45C18.37 19.41 18.28 19.35 18.21 19.28L13.53 14.58C12.32 15.59 10.85 16.23 9.3 16.42C7.75 16.63 6.16 16.38 4.75 15.71C3.32 15.05 2.12 14 1.28 12.67C0.44 11.35 0 9.82 0 8.25Z" fill="#191A26" fill-opacity="1.000000" fill-rule="evenodd"/>
</svg>
