<svg width="64.000000" height="64.000000" viewBox="0 0 64 64" fill="none" xmlns="http://www.w3.org/2000/svg" xmlns:xlink="http://www.w3.org/1999/xlink">
	<desc>
			Created with Pixso.
	</desc>
	<defs>
		<clipPath id="clip47_31250">
			<rect id="воин" rx="-0.500000" width="23.000000" height="23.000000" transform="translate(20.500000 20.500000)" fill="white" fill-opacity="0"/>
		</clipPath>
		<radialGradient gradientTransform="translate(32 -33.098) rotate(90) scale(107.098 73.3011)" cx="0.000000" cy="0.000000" r="1.000000" id="paint_radial_47_31249_0" gradientUnits="userSpaceOnUse">
			<stop stop-color="#F36DFF"/>
			<stop offset="0.605000" stop-color="#8745FE"/>
			<stop offset="1.000000" stop-color="#17BAE5"/>
		</radialGradient>
	</defs>
	<path id="STROKE" d="M28 2.31L8.28 13.68C5.81 15.11 4.28 17.75 4.28 20.61L4.28 43.38C4.28 46.24 5.81 48.88 8.28 50.31L28 61.68C30.47 63.11 33.52 63.11 36 61.68L55.71 50.31C58.18 48.88 59.71 46.24 59.71 43.38L59.71 20.61C59.71 17.75 58.18 15.11 55.71 13.68L36 2.31C33.52 0.88 30.47 0.88 28 2.31Z" fill="#FFFFFF" fill-opacity="1.000000" fill-rule="evenodd"/>
	<path id="STROKE" d="M8.28 13.68C5.81 15.11 4.28 17.75 4.28 20.61L4.28 43.38C4.28 46.24 5.81 48.88 8.28 50.31L28 61.68C30.47 63.11 33.52 63.11 36 61.68L55.71 50.31C58.18 48.88 59.71 46.24 59.71 43.38L59.71 20.61C59.71 17.75 58.18 15.11 55.71 13.68L36 2.31C33.52 0.88 30.47 0.88 28 2.31L8.28 13.68ZM9.28 15.42C7.42 16.49 6.28 18.47 6.28 20.61L6.28 43.38C6.28 45.52 7.42 47.5 9.28 48.57L29 59.96C30.85 61.03 33.14 61.03 35 59.96L54.71 48.57C56.57 47.5 57.71 45.52 57.71 43.38L57.71 20.61C57.71 18.47 56.57 16.49 54.71 15.42L35 4.03C33.14 2.96 30.85 2.96 29 4.03L9.28 15.42Z" fill="url(#paint_radial_47_31249_0)" fill-opacity="1.000000" fill-rule="evenodd"/>
	<rect id="воин" rx="-0.500000" width="23.000000" height="23.000000" transform="translate(20.500000 20.500000)" fill="#FFFFFF" fill-opacity="0"/>
	<g clip-path="url(#clip47_31250)">
		<path id="Vector" d="M25.16 30.71C25.45 30.42 25.92 30.42 26.22 30.71L33.28 37.78C33.57 38.07 33.57 38.54 33.28 38.84L32.08 40.03C31.79 40.32 31.32 40.32 31.02 40.03L23.96 32.96C23.67 32.67 23.67 32.2 23.96 31.9L25.16 30.71ZM35 29L29.75 34.25M26.37 35.37L23.21 38.53C23.07 38.67 23 38.85 23 39.06C23 39.25 23.07 39.45 23.21 39.59L24.4 40.78C24.47 40.85 24.55 40.9 24.64 40.94C24.74 40.98 24.83 41 24.93 41C25.03 41 25.13 40.98 25.22 40.94C25.31 40.9 25.39 40.85 25.46 40.78L28.62 37.62M27.73 32.22L34.25 23.75L40.25 23.75L40.25 29.75L31.77 36.27" stroke="#8E35FF" stroke-opacity="1.000000" stroke-width="1.500000" stroke-linejoin="round" stroke-linecap="round"/>
	</g>
</svg>

