<svg width="27.710938" height="31.203125" viewBox="0 0 27.7109 31.2031" fill="none" xmlns="http://www.w3.org/2000/svg" xmlns:xlink="http://www.w3.org/1999/xlink">
	<desc>
			Created with Pixso.
	</desc>
	<defs>
		<radialGradient gradientTransform="translate(13.8555 15.6016) rotate(90) scale(16 16)" cx="0.000000" cy="0.000000" r="1.000000" id="paint_angular_846_34949_0" gradientUnits="userSpaceOnUse">
			<stop stop-color="#F16DFD"/>
			<stop offset="1.000000" stop-color="#F16DFD" stop-opacity="0.400000"/>
		</radialGradient>
	</defs>
	<path id="Polygon 13" d="M12.57 0.34L1.27 6.85C0.48 7.32 0 8.16 0 9.07L0 22.12C0 23.03 0.48 23.88 1.27 24.34L12.57 30.85C13.36 31.32 14.34 31.32 15.13 30.85L26.43 24.34C27.22 23.88 27.71 23.03 27.71 22.12L27.71 9.07C27.71 8.16 27.22 7.32 26.43 6.85L15.13 0.34C14.34 -0.12 13.36 -0.12 12.57 0.34Z" fill="url(#paint_angular_846_34949_0)" fill-opacity="1.000000" fill-rule="evenodd"/>
	<path id="Polygon 13" d="M1.27 6.85C0.48 7.32 0 8.16 0 9.07L0 22.12C0 23.03 0.48 23.88 1.27 24.34L12.57 30.85C13.36 31.32 14.34 31.32 15.13 30.85L26.43 24.34C27.22 23.88 27.71 23.03 27.71 22.12L27.71 9.07C27.71 8.16 27.22 7.32 26.43 6.85L15.13 0.34C14.34 -0.12 13.36 -0.12 12.57 0.34L1.27 6.85ZM1.91 7.96C1.52 8.2 1.27 8.62 1.27 9.07L1.27 22.12C1.27 22.57 1.52 23 1.91 23.23L13.21 29.75C13.61 29.98 14.09 29.98 14.49 29.75L25.79 23.23C26.18 23 26.43 22.57 26.43 22.12L26.43 9.07C26.43 8.62 26.18 8.2 25.79 7.96L14.49 1.44C14.09 1.21 13.61 1.21 13.21 1.44L1.91 7.96Z" fill="#F36DFF" fill-opacity="1.000000" fill-rule="evenodd"/>
</svg>
