<svg width="24.000000" height="24.000000" viewBox="0 0 24 24" fill="none" xmlns="http://www.w3.org/2000/svg" xmlns:xlink="http://www.w3.org/1999/xlink">
	<desc>
			Created with Pixso.
	</desc>
	<defs>
		<clipPath id="clip17_31444">
			<rect id="Question" rx="-0.500000" width="23.000000" height="23.000000" transform="translate(0.500000 0.500000)" fill="white" fill-opacity="0"/>
		</clipPath>
	</defs>
	<rect id="Question" rx="-0.500000" width="23.000000" height="23.000000" transform="translate(0.500000 0.500000)" fill="#FFFFFF" fill-opacity="0"/>
	<g clip-path="url(#clip17_31444)">
		<path id="Vector" d="M3 12C3 7.03 7.03 3 12 3C16.96 3 21 7.03 21 12C21 16.96 16.96 21 12 21C10.44 21 8.98 20.6 7.7 19.91L4.16 20.57C3.95 20.6 3.75 20.54 3.6 20.39C3.45 20.25 3.39 20.03 3.42 19.83L4.08 16.29C3.39 15.01 3 13.55 3 12ZM10.61 8.32C10.32 8.56 10.11 8.93 10.11 9.49C10.11 9.83 9.83 10.11 9.48 10.11C9.14 10.11 8.85 9.83 8.85 9.49C8.85 8.57 9.22 7.85 9.8 7.35C10.36 6.88 11.08 6.66 11.78 6.66C12.49 6.66 13.21 6.88 13.78 7.35C14.35 7.85 14.72 8.57 14.72 9.49C14.72 10.13 14.55 10.61 14.28 11.02C14.06 11.35 13.76 11.61 13.53 11.82C13.51 11.85 13.48 11.86 13.46 11.89C13.21 12.12 13.01 12.31 12.87 12.56C12.73 12.8 12.62 13.14 12.62 13.67C12.62 14.02 12.34 14.3 12 14.3C11.65 14.3 11.37 14.02 11.37 13.67C11.37 12.95 11.52 12.39 11.78 11.94C12.03 11.5 12.35 11.19 12.62 10.96L12.68 10.9C12.93 10.67 13.11 10.52 13.24 10.32C13.36 10.14 13.46 9.89 13.46 9.49C13.46 8.93 13.25 8.56 12.96 8.32C12.66 8.06 12.23 7.92 11.78 7.92C11.33 7.92 10.91 8.06 10.61 8.32ZM12.47 17.44C12.7 17.18 12.68 16.78 12.42 16.55C12.17 16.32 11.77 16.34 11.54 16.6L11.53 16.6C11.3 16.86 11.32 17.26 11.57 17.5C11.83 17.72 12.23 17.71 12.46 17.45L12.47 17.44Z" fill="#8E35FF" fill-opacity="1.000000" fill-rule="evenodd"/>
		<path id="Vector" d="M7.7 19.91C8.98 20.6 10.44 21 12 21C16.96 21 21 16.96 21 12C21 7.03 16.96 3 12 3C7.03 3 3 7.03 3 12C3 13.55 3.39 15.01 4.08 16.29L3.42 19.83C3.39 20.03 3.45 20.25 3.6 20.39C3.75 20.54 3.95 20.6 4.16 20.57L7.7 19.91ZM10.21 4.19Q11.08 4 12 4Q12.91 4 13.78 4.19Q14.46 4.35 15.11 4.62Q15.78 4.91 16.37 5.3Q17.06 5.75 17.65 6.34Q18.25 6.93 18.69 7.62Q19.08 8.21 19.37 8.88Q19.64 9.53 19.8 10.21Q20 11.08 20 12Q20 12.91 19.8 13.78Q19.64 14.46 19.37 15.11Q19.08 15.78 18.69 16.37Q18.25 17.06 17.65 17.65Q17.06 18.25 16.37 18.69Q15.78 19.08 15.11 19.37Q14.46 19.64 13.78 19.8Q12.91 20 12 20Q11.32 20 10.67 19.89Q10.33 19.83 10 19.75Q9.55 19.63 9.12 19.46Q8.64 19.28 8.18 19.03L7.87 18.85L4.51 19.49L5.13 16.12L4.96 15.82Q4.71 15.35 4.53 14.87Q4.36 14.44 4.25 14Q4.16 13.66 4.1 13.32Q4 12.67 4 12Q4 11.08 4.19 10.21Q4.35 9.53 4.62 8.88Q4.91 8.21 5.3 7.62Q5.75 6.93 6.34 6.34Q6.93 5.75 7.62 5.3Q8.21 4.91 8.88 4.62Q9.53 4.35 10.21 4.19ZM11.08 9.82Q11.11 9.66 11.11 9.49Q11.11 9.31 11.16 9.2Q11.17 9.18 11.18 9.17Q11.21 9.12 11.26 9.07Q11.34 9.01 11.46 8.96Q11.61 8.92 11.78 8.92Q11.96 8.92 12.11 8.96Q12.23 9.01 12.32 9.07Q12.36 9.12 12.39 9.17Q12.4 9.18 12.41 9.2Q12.46 9.31 12.46 9.49Q12.46 9.68 12.41 9.76Q12.37 9.82 12.3 9.89Q12.23 9.96 12.01 10.15L12.01 10.15L11.95 10.21Q11.64 10.49 11.45 10.7Q11.13 11.06 10.91 11.45Q10.37 12.4 10.37 13.67Q10.37 13.84 10.4 14Q10.43 14.16 10.5 14.3Q10.56 14.45 10.64 14.57Q10.73 14.71 10.84 14.82Q10.96 14.93 11.09 15.03Q11.22 15.11 11.36 15.17Q11.51 15.23 11.66 15.26Q11.82 15.3 12 15.3Q12.17 15.3 12.33 15.26Q12.48 15.23 12.63 15.17Q12.77 15.11 12.9 15.03Q13.03 14.93 13.15 14.82Q13.26 14.71 13.35 14.57Q13.43 14.45 13.5 14.3Q13.56 14.16 13.59 14Q13.62 13.84 13.62 13.67Q13.62 13.25 13.74 13.05Q13.78 12.98 13.86 12.89Q13.95 12.79 14.13 12.64L14.2 12.57L14.2 12.57Q14.47 12.32 14.63 12.17Q14.92 11.87 15.12 11.57Q15.26 11.36 15.36 11.14Q15.72 10.39 15.72 9.49Q15.72 8.74 15.47 8.08Q15.42 7.96 15.37 7.85Q15.21 7.5 15 7.21Q14.75 6.87 14.42 6.6Q14.28 6.47 14.13 6.37Q13.69 6.07 13.16 5.88Q12.94 5.81 12.71 5.76Q12.26 5.66 11.78 5.66Q11.31 5.66 10.86 5.76Q10.64 5.81 10.42 5.88Q9.89 6.07 9.44 6.37Q9.29 6.47 9.15 6.6Q8.82 6.87 8.58 7.21Q8.36 7.5 8.2 7.85Q8.15 7.96 8.1 8.08Q7.85 8.74 7.85 9.49Q7.85 9.66 7.89 9.82Q7.92 9.97 7.98 10.12Q8.05 10.26 8.13 10.39Q8.22 10.52 8.33 10.64Q8.45 10.75 8.58 10.84Q8.71 10.92 8.85 10.98Q9 11.04 9.15 11.07Q9.31 11.11 9.48 11.11Q9.66 11.11 9.82 11.07Q9.97 11.04 10.12 10.98Q10.26 10.92 10.39 10.84Q10.52 10.75 10.64 10.64Q10.75 10.52 10.84 10.39Q10.92 10.26 10.98 10.12Q11.05 9.97 11.08 9.82ZM10.61 8.32C10.32 8.56 10.11 8.93 10.11 9.49C10.11 9.83 9.83 10.11 9.48 10.11C9.14 10.11 8.85 9.83 8.85 9.49C8.85 8.57 9.22 7.85 9.8 7.35C10.36 6.88 11.08 6.66 11.78 6.66C12.49 6.66 13.21 6.88 13.78 7.35C14.35 7.85 14.72 8.57 14.72 9.49C14.72 10.13 14.55 10.61 14.28 11.02C14.06 11.35 13.76 11.61 13.53 11.82C13.51 11.85 13.48 11.86 13.46 11.89C13.21 12.12 13.01 12.31 12.87 12.56C12.73 12.8 12.62 13.14 12.62 13.67C12.62 14.02 12.34 14.3 12 14.3C11.65 14.3 11.37 14.02 11.37 13.67C11.37 12.95 11.52 12.39 11.78 11.94C12.03 11.5 12.35 11.19 12.62 10.96L12.68 10.9C12.93 10.67 13.11 10.52 13.24 10.32C13.36 10.14 13.46 9.89 13.46 9.49C13.46 8.93 13.25 8.56 12.96 8.32C12.66 8.06 12.23 7.92 11.78 7.92C11.33 7.92 10.91 8.06 10.61 8.32ZM13.32 16.06Q13.22 15.92 13.09 15.81L13.09 15.81Q12.96 15.69 12.82 15.6Q12.69 15.53 12.53 15.48Q12.39 15.42 12.24 15.41Q12.08 15.39 11.92 15.39Q11.76 15.4 11.6 15.44Q11.45 15.48 11.32 15.54Q11.17 15.61 11.05 15.7Q10.91 15.8 10.8 15.92L10.78 15.94Q10.67 16.07 10.58 16.21Q10.51 16.35 10.46 16.5Q10.41 16.64 10.39 16.79Q10.36 16.95 10.37 17.11Q10.38 17.28 10.42 17.42Q10.46 17.57 10.52 17.71Q10.59 17.86 10.68 17.99Q10.78 18.12 10.91 18.24Q11.03 18.35 11.18 18.44Q11.32 18.51 11.46 18.57Q11.61 18.61 11.76 18.64Q11.92 18.66 12.08 18.65Q12.24 18.64 12.4 18.6Q12.55 18.57 12.69 18.5Q12.83 18.43 12.95 18.35Q13.09 18.25 13.21 18.12L13.21 18.1Q13.33 17.98 13.41 17.84Q13.49 17.7 13.54 17.55Q13.59 17.4 13.62 17.25Q13.64 17.1 13.63 16.93Q13.62 16.77 13.58 16.61Q13.54 16.47 13.48 16.33Q13.41 16.18 13.32 16.06ZM12.47 17.44C12.7 17.18 12.68 16.78 12.42 16.55C12.17 16.32 11.77 16.34 11.54 16.6L11.53 16.6C11.3 16.86 11.32 17.26 11.57 17.5C11.83 17.72 12.23 17.71 12.46 17.45L12.47 17.44Z" fill="#8E35FF" fill-opacity="1.000000" fill-rule="evenodd"/>
	</g>
</svg>
