<svg width="48.000000" height="48.000000" viewBox="0 0 48 48" fill="none" xmlns="http://www.w3.org/2000/svg" xmlns:xlink="http://www.w3.org/1999/xlink">
	<desc>
			Created with Pixso.
	</desc>
	<defs>
		<clipPath id="clip127_27734">
			<rect id="Remove" rx="-0.500000" width="23.000000" height="23.000000" transform="translate(12.500000 12.500000)" fill="white" fill-opacity="0"/>
		</clipPath>
	</defs>
	<rect id="Button" rx="23.500000" width="47.000000" height="47.000000" transform="translate(0.500000 0.500000)" fill="#FFFFFF" fill-opacity="1.000000"/>
	<rect id="Remove" rx="-0.500000" width="23.000000" height="23.000000" transform="translate(12.500000 12.500000)" fill="#FFFFFF" fill-opacity="0"/>
	<g clip-path="url(#clip127_27734)">
		<path id="Vector" d="M17.46 17.47C17.6 17.33 17.8 17.25 18 17.25C18.19 17.25 18.39 17.33 18.53 17.47L24 22.94L29.46 17.47C29.53 17.39 29.62 17.34 29.71 17.29C29.8 17.25 29.9 17.23 30 17.23C30.1 17.23 30.2 17.25 30.3 17.28C30.39 17.32 30.47 17.38 30.54 17.45C30.62 17.52 30.67 17.6 30.71 17.7C30.75 17.79 30.76 17.89 30.76 18C30.76 18.1 30.74 18.19 30.7 18.28C30.66 18.38 30.6 18.46 30.53 18.53L25.05 24L30.53 29.47C30.6 29.53 30.66 29.62 30.7 29.71C30.74 29.8 30.76 29.9 30.76 30C30.76 30.1 30.75 30.21 30.71 30.3C30.67 30.39 30.62 30.48 30.54 30.55C30.47 30.62 30.39 30.67 30.3 30.71C30.2 30.75 30.1 30.77 30 30.77C29.9 30.77 29.8 30.75 29.71 30.7C29.62 30.66 29.53 30.6 29.46 30.53L24 25.06L18.53 30.53C18.38 30.66 18.19 30.73 18 30.73C17.8 30.73 17.62 30.64 17.48 30.51C17.35 30.37 17.27 30.19 17.26 30C17.26 29.8 17.33 29.61 17.46 29.47L22.93 24L17.46 18.53C17.32 18.39 17.25 18.2 17.25 18C17.25 17.8 17.32 17.61 17.46 17.47Z" fill="#191A26" fill-opacity="1.000000" fill-rule="evenodd"/>
	</g>
	<rect id="Button" rx="23.500000" width="47.000000" height="47.000000" transform="translate(0.500000 0.500000)" stroke="#DEE3E8" stroke-opacity="1.000000" stroke-width="1.000000"/>
</svg>
