<svg width="24.000000" height="24.000000" viewBox="0 0 24 24" fill="none" xmlns="http://www.w3.org/2000/svg" xmlns:xlink="http://www.w3.org/1999/xlink">
	<desc>
			Created with Pixso.
	</desc>
	<defs>
		<clipPath id="clip846_31339">
			<rect id="Frame" rx="-0.046875" width="23.906250" height="23.906250" transform="translate(0.046875 0.046875)" fill="white" fill-opacity="0"/>
		</clipPath>
	</defs>
	<rect id="Frame" rx="-0.046875" width="23.906250" height="23.906250" transform="translate(0.046875 0.046875)" fill="#FFFFFF" fill-opacity="0"/>
	<g clip-path="url(#clip846_31339)">
		<path id="Vector" d="M15.75 3.8L15.75 3C15.75 2.4 15.51 1.82 15.08 1.4C14.66 0.98 14.09 0.75 13.5 0.75L10.5 0.75C9.9 0.75 9.33 0.98 8.91 1.4C8.48 1.82 8.25 2.4 8.25 3L8.25 3.8C7 3.98 5.85 4.6 5.03 5.56C4.2 6.51 3.75 7.73 3.75 9L3.75 20.25C3.75 20.64 3.9 21.03 4.18 21.31C4.46 21.59 4.85 21.75 5.25 21.75L18.75 21.75C19.14 21.75 19.53 21.59 19.81 21.31C20.09 21.03 20.25 20.64 20.25 20.25L20.25 9C20.25 7.73 19.79 6.51 18.96 5.56C18.14 4.6 17 3.98 15.75 3.8ZM9.75 3C9.75 2.8 9.82 2.6 9.96 2.46C10.1 2.32 10.3 2.25 10.5 2.25L13.5 2.25C13.69 2.25 13.89 2.32 14.03 2.46C14.17 2.6 14.25 2.8 14.25 3L14.25 3.75L9.75 3.75L9.75 3ZM10.5 6.75L13.5 6.75C13.69 6.75 13.89 6.82 14.03 6.96C14.17 7.1 14.25 7.3 14.25 7.5C14.25 7.69 14.17 7.89 14.03 8.03C13.89 8.17 13.69 8.25 13.5 8.25L10.5 8.25C10.3 8.25 10.1 8.17 9.96 8.03C9.82 7.89 9.75 7.69 9.75 7.5C9.75 7.3 9.82 7.1 9.96 6.96C10.1 6.82 10.3 6.75 10.5 6.75ZM16.5 20.25L7.5 20.25L7.5 16.5L12.75 16.5L12.75 17.25C12.75 17.44 12.82 17.64 12.96 17.78C13.1 17.92 13.3 18 13.5 18C13.69 18 13.89 17.92 14.03 17.78C14.17 17.64 14.25 17.44 14.25 17.25L14.25 16.5L16.5 16.5L16.5 20.25ZM16.5 15L7.5 15L7.5 14.25C7.5 13.85 7.65 13.46 7.93 13.18C8.21 12.9 8.6 12.75 9 12.75L15 12.75C15.39 12.75 15.78 12.9 16.06 13.18C16.34 13.46 16.5 13.85 16.5 14.25L16.5 15Z" fill="#8E35FF" fill-opacity="1.000000" fill-rule="nonzero"/>
	</g>
</svg>
