<svg width="18.000000" height="19.000000" viewBox="0 0 18 19" fill="none" xmlns="http://www.w3.org/2000/svg" xmlns:xlink="http://www.w3.org/1999/xlink">
	<desc>
			Created with Pixso.
	</desc>
	<defs/>
	<path id="Vector" d="M18 5.44L18 13.55C18 13.79 17.93 14.03 17.8 14.25C17.67 14.45 17.49 14.62 17.28 14.74L9.66 18.82C9.46 18.94 9.23 19 9 19C8.76 19 8.53 18.94 8.33 18.82L0.71 14.74C0.5 14.62 0.32 14.45 0.19 14.25C0.06 14.03 0 13.79 0 13.55L0 5.44C0 5.2 0.06 4.96 0.19 4.75C0.32 4.54 0.5 4.37 0.71 4.25L8.33 0.17C8.53 0.05 8.76 0 9 0C9.23 0 9.46 0.05 9.66 0.17L17.28 4.25C17.49 4.37 17.67 4.54 17.8 4.75C17.93 4.96 18 5.2 18 5.44Z" fill="#B9BCCB" fill-opacity="1.000000" fill-rule="nonzero"/>
</svg>
