<svg width="24.000000" height="24.000000" viewBox="0 0 24 24" fill="none" xmlns="http://www.w3.org/2000/svg" xmlns:xlink="http://www.w3.org/1999/xlink">
	<desc>
			Created with Pixso.
	</desc>
	<defs>
		<clipPath id="clip69_27067">
			<rect id="telegram-1 1" rx="-0.005000" width="23.990000" height="23.990000" transform="translate(0.005000 0.005000)" fill="white" fill-opacity="0"/>
		</clipPath>
	</defs>
	<rect id="telegram-1 1" rx="-0.005000" width="23.990000" height="23.990000" transform="translate(0.005000 0.005000)" fill="#FFFFFF" fill-opacity="0"/>
	<g clip-path="url(#clip69_27067)">
		<path id="Vector" d="M12 24C18.62 24 24 18.62 24 12C24 5.37 18.62 0 12 0C5.37 0 0 5.37 0 12C0 18.62 5.37 24 12 24Z" fill="#34AADF" fill-opacity="1.000000" fill-rule="nonzero"/>
		<path id="Vector" d="M24 12C24 18.62 18.62 24 12 24C5.37 24 0 18.62 0 12C0 5.37 5.37 0 12 0C18.62 0 24 5.37 24 12ZM23.66 9.37Q23.94 10.65 23.94 12Q23.94 13.34 23.66 14.63Q23.42 15.66 23.01 16.64Q22.58 17.65 21.99 18.55Q21.32 19.57 20.44 20.45Q19.57 21.32 18.55 21.99Q17.65 22.58 16.65 23Q15.66 23.42 14.62 23.66Q13.34 23.95 12 23.95Q10.65 23.95 9.37 23.66Q8.33 23.42 7.34 23Q6.34 22.58 5.44 22Q4.42 21.32 3.55 20.45Q2.67 19.57 2 18.55Q1.41 17.65 0.98 16.64Q0.57 15.66 0.33 14.62Q0.05 13.34 0.05 12Q0.05 10.65 0.33 9.37Q0.57 8.33 0.98 7.35Q1.41 6.34 2 5.44Q2.67 4.42 3.55 3.54Q4.42 2.67 5.44 2Q6.34 1.41 7.34 0.99Q8.33 0.57 9.37 0.33Q10.65 0.04 12 0.04Q13.34 0.04 14.62 0.33Q15.66 0.57 16.65 0.99Q17.65 1.41 18.55 2Q19.57 2.67 20.44 3.54Q21.32 4.42 21.99 5.44Q22.58 6.34 23.01 7.35Q23.42 8.33 23.66 9.37Z" fill="#181A26" fill-opacity="1.000000" fill-rule="evenodd"/>
		<path id="Vector" d="M4.99 11.89C4.99 11.89 10.99 9.42 13.07 8.56C13.87 8.21 16.57 7.1 16.57 7.1C16.57 7.1 17.82 6.62 17.72 7.79C17.68 8.28 17.41 9.98 17.13 11.82C16.71 14.42 16.26 17.26 16.26 17.26C16.26 17.26 16.19 18.06 15.6 18.2C15.01 18.34 14.04 17.71 13.87 17.57C13.73 17.47 11.27 15.91 10.37 15.15C10.12 14.94 9.85 14.53 10.4 14.04C11.65 12.89 13.14 11.47 14.04 10.57C14.46 10.15 14.87 9.18 13.14 10.36C10.68 12.06 8.25 13.66 8.25 13.66C8.25 13.66 7.69 14 6.66 13.69C5.62 13.38 4.4 12.96 4.4 12.96C4.4 12.96 3.57 12.44 4.99 11.89Z" fill="#FFFFFF" fill-opacity="1.000000" fill-rule="nonzero"/>
		<path id="Vector" d="M16.26 17.26C16.26 17.26 16.71 14.42 17.13 11.82C17.41 9.98 17.68 8.28 17.72 7.79C17.82 6.62 16.57 7.1 16.57 7.1C16.57 7.1 13.87 8.21 13.07 8.56C10.99 9.42 4.99 11.89 4.99 11.89C3.57 12.44 4.4 12.96 4.4 12.96C4.4 12.96 5.62 13.38 6.66 13.69C7.69 14 8.25 13.66 8.25 13.66C8.25 13.66 10.68 12.06 13.14 10.36C14.87 9.18 14.46 10.15 14.04 10.57C13.14 11.47 11.65 12.89 10.4 14.04C9.85 14.53 10.12 14.94 10.37 15.15C11.27 15.91 13.73 17.47 13.87 17.57C14.04 17.71 15.01 18.34 15.6 18.2C16.19 18.06 16.26 17.26 16.26 17.26ZM8.23 13.61Q8.83 13.21 9.75 12.6Q11.58 11.39 13.11 10.32Q13.72 9.91 14.06 9.79Q14.31 9.71 14.41 9.79Q14.43 9.82 14.44 9.85Q14.5 9.97 14.37 10.22Q14.33 10.29 14.28 10.35Q14.19 10.49 14.08 10.6Q13.39 11.29 12.39 12.25Q11.36 13.22 10.44 14.07L10.44 14.07L10.43 14.07Q10.13 14.34 10.13 14.61Q10.13 14.65 10.14 14.69Q10.17 14.92 10.4 15.11Q10.85 15.5 11.94 16.24Q12.54 16.64 13.52 17.28Q13.87 17.51 13.9 17.53L13.9 17.53L13.9 17.53Q13.98 17.6 14.16 17.71Q14.38 17.85 14.6 17.95Q15.23 18.24 15.59 18.15Q15.67 18.14 15.75 18.1Q15.98 17.97 16.11 17.66Q16.16 17.53 16.19 17.38Q16.21 17.31 16.21 17.26L16.21 17.26L16.98 12.42L17.08 11.81Q17.16 11.3 17.31 10.33Q17.64 8.14 17.67 7.79Q17.7 7.41 17.55 7.22Q17.53 7.21 17.51 7.19Q17.39 7.07 17.18 7.06Q17 7.04 16.78 7.1Q16.67 7.12 16.59 7.15L16.59 7.15Q13.89 8.26 13.09 8.6L13.09 8.6L9.41 10.13L5.01 11.93Q4.53 12.12 4.33 12.32Q4.21 12.46 4.21 12.59Q4.21 12.6 4.21 12.63Q4.23 12.74 4.33 12.84Q4.38 12.89 4.42 12.92Q5.64 13.33 6.67 13.64Q7.31 13.84 7.83 13.75Q8 13.71 8.13 13.66Q8.19 13.64 8.23 13.61Z" fill="#181A26" fill-opacity="1.000000" fill-rule="evenodd"/>
	</g>
</svg>
